<svg width="20" height="20" viewBox="0 0 20 20" fill="none" xmlns="http://www.w3.org/2000/svg">
<path d="M3.52087 1.69334L10.0009 8.17334L16.4542 1.72001C16.5673 1.59963 16.7035 1.50334 16.8548 1.43689C17.006 1.37045 17.169 1.33523 17.3342 1.33334C17.6878 1.33334 18.027 1.47382 18.277 1.72387C18.5271 1.97392 18.6675 2.31305 18.6675 2.66668C18.6706 2.83015 18.6403 2.99253 18.5784 3.14385C18.5165 3.29518 18.4243 3.43226 18.3075 3.54668L11.7875 10L18.3075 16.52C18.5273 16.735 18.6561 17.0261 18.6675 17.3333C18.6675 17.687 18.5271 18.0261 18.277 18.2762C18.027 18.5262 17.6878 18.6667 17.3342 18.6667C17.1643 18.6737 16.9947 18.6454 16.8364 18.5834C16.678 18.5214 16.5342 18.4272 16.4142 18.3067L10.0009 11.8267L3.5342 18.2933C3.42154 18.4097 3.28695 18.5026 3.1382 18.5667C2.98945 18.6308 2.82949 18.6647 2.66753 18.6667C2.31391 18.6667 1.97477 18.5262 1.72473 18.2762C1.47468 18.0261 1.3342 17.687 1.3342 17.3333C1.33109 17.1699 1.36142 17.0075 1.42333 16.8562C1.48523 16.7048 1.57741 16.5678 1.6942 16.4533L8.2142 10L1.6942 3.48001C1.47445 3.26502 1.34559 2.97389 1.3342 2.66668C1.3342 2.31305 1.47468 1.97392 1.72473 1.72387C1.97477 1.47382 2.31391 1.33334 2.66753 1.33334C2.98753 1.33734 3.2942 1.46668 3.52087 1.69334Z" fill="#006DEF"/>
</svg>
