<svg width="28" height="25" viewBox="0 0 28 25" fill="none" xmlns="http://www.w3.org/2000/svg">
<path d="M20.0259 4.21068L23.1146 7.03335L20.0259 4.21068ZM22.0121 1.72401L13.6603 9.36001C13.2287 9.75401 12.9344 10.256 12.8144 10.8027L12.043 14.3333L15.9046 13.6267C16.5026 13.5173 17.0509 13.2493 17.4826 12.8547L25.8344 5.21868C26.0854 4.98922 26.2845 4.7168 26.4203 4.417C26.5561 4.11719 26.626 3.79586 26.626 3.47135C26.626 3.14684 26.5561 2.8255 26.4203 2.5257C26.2845 2.22589 26.0854 1.95348 25.8344 1.72401C25.5835 1.49455 25.2855 1.31253 24.9576 1.18835C24.6297 1.06416 24.2782 1.00024 23.9233 1.00024C23.5683 1.00024 23.2169 1.06416 22.889 1.18835C22.5611 1.31253 22.2631 1.49455 22.0121 1.72401V1.72401Z" stroke="#006DEF" stroke-width="2" stroke-linecap="round" stroke-linejoin="round"/>
<path d="M23.709 17V21C23.709 21.7073 23.4017 22.3855 22.8547 22.8856C22.3077 23.3857 21.5659 23.6667 20.7923 23.6667H4.75065C3.9771 23.6667 3.23524 23.3857 2.68826 22.8856C2.14128 22.3855 1.83398 21.7073 1.83398 21V6.33335C1.83398 5.62611 2.14128 4.94783 2.68826 4.44774C3.23524 3.94764 3.9771 3.66669 4.75065 3.66669H9.12565" stroke="#006DEF" stroke-width="2" stroke-linecap="round" stroke-linejoin="round"/>
</svg>
