<svg width="35" height="35" viewBox="0 0 35 35" fill="none" xmlns="http://www.w3.org/2000/svg">
<path d="M17.5007 2.91667C13.48 2.91667 10.209 6.18771 10.209 10.2083V14.5833H8.75065C7.14211 14.5833 5.83398 15.8915 5.83398 17.5V29.1667C5.83398 30.7752 7.14211 32.0833 8.75065 32.0833H26.2507C27.8592 32.0833 29.1673 30.7752 29.1673 29.1667V17.5C29.1673 15.8915 27.8592 14.5833 26.2507 14.5833H24.7923V10.2083C24.7923 6.18771 21.5213 2.91667 17.5007 2.91667ZM26.2507 17.5L26.2536 29.1667H8.75065V17.5H26.2507ZM13.1257 14.5833V10.2083C13.1257 7.79626 15.0886 5.83334 17.5007 5.83334C19.9127 5.83334 21.8757 7.79626 21.8757 10.2083V14.5833H13.1257Z" fill="#793093"/>
</svg>
