<svg width="35" height="35" viewBox="0 0 35 35" fill="none" xmlns="http://www.w3.org/2000/svg">
<path d="M13.2067 28.2871L3.45864 18.591C3.40242 18.5351 3.35781 18.4686 3.32737 18.3954C3.29692 18.3222 3.28125 18.2437 3.28125 18.1644C3.28125 18.0851 3.29692 18.0066 3.32737 17.9334C3.35781 17.8602 3.40242 17.7937 3.45864 17.7378L5.91958 15.2742C6.15473 15.039 6.53481 15.039 6.76997 15.2742L13.1875 21.6535C13.4227 21.8886 13.8055 21.8859 14.0407 21.6507L28.2211 7.33355C28.4563 7.09566 28.8391 7.09566 29.077 7.33081L31.5407 9.79448C31.7758 10.0296 31.7758 10.4097 31.5434 10.6449L16.0942 26.2335L16.0969 26.2363L14.0598 28.2843C13.8247 28.5195 13.4418 28.5195 13.2067 28.2871Z" fill="#006DEF" stroke="#006DEF" stroke-width="1.64062" stroke-miterlimit="10"/>
</svg>
