<svg width="18" height="18" viewBox="0 0 18 18" fill="none" xmlns="http://www.w3.org/2000/svg">
<path d="M13.8867 17.7305C14.9805 17.7305 15.8789 17.3789 16.582 16.6758C17.2852 15.9727 17.6367 15.0742 17.6367 13.9805V4.01953C17.6367 2.92578 17.2852 2.02734 16.582 1.32422C15.8789 0.621094 14.9805 0.269531 13.8867 0.269531H3.92578C2.83203 0.269531 1.93359 0.621094 1.23047 1.32422C0.527344 2.02734 0.175781 2.92578 0.175781 4.01953V13.9805C0.175781 15.0742 0.527344 15.9727 1.23047 16.6758C1.93359 17.3789 2.83203 17.7305 3.92578 17.7305H13.8867ZM2.63672 13.9805V4.01953C2.63672 3.16016 3.06641 2.73047 3.92578 2.73047H13.8867C14.7461 2.73047 15.1758 3.16016 15.1758 4.01953V13.9805C15.1758 14.8398 14.7461 15.2695 13.8867 15.2695H3.92578C3.06641 15.2695 2.63672 14.8398 2.63672 13.9805Z" fill="black" fill-opacity="0.7"/>
</svg>
