<svg width="28" height="25" viewBox="0 0 28 25" fill="none" xmlns="http://www.w3.org/2000/svg">
<path d="M20.0239 4.21066L23.1127 7.03333L20.0239 4.21066ZM22.0102 1.724L13.6583 9.36C13.2268 9.754 12.9325 10.256 12.8125 10.8027L12.041 14.3333L15.9027 13.6267C16.5006 13.5173 17.0489 13.2493 17.4806 12.8547L25.8325 5.21866C26.0835 4.9892 26.2825 4.71679 26.4184 4.41698C26.5542 4.11717 26.6241 3.79584 26.6241 3.47133C26.6241 3.14682 26.5542 2.82549 26.4184 2.52568C26.2825 2.22587 26.0835 1.95346 25.8325 1.724C25.5815 1.49453 25.2835 1.31251 24.9556 1.18833C24.6277 1.06415 24.2763 1.00023 23.9213 1.00023C23.5664 1.00023 23.2149 1.06415 22.887 1.18833C22.5591 1.31251 22.2612 1.49453 22.0102 1.724V1.724Z" stroke="white" stroke-width="2" stroke-linecap="round" stroke-linejoin="round"/>
<path d="M23.708 17V21C23.708 21.7072 23.4007 22.3855 22.8537 22.8856C22.3068 23.3857 21.5649 23.6667 20.7913 23.6667H4.74967C3.97613 23.6667 3.23426 23.3857 2.68728 22.8856C2.1403 22.3855 1.83301 21.7072 1.83301 21V6.33332C1.83301 5.62608 2.1403 4.9478 2.68728 4.4477C3.23426 3.94761 3.97613 3.66666 4.74967 3.66666H9.12467" stroke="white" stroke-width="2" stroke-linecap="round" stroke-linejoin="round"/>
</svg>
