<svg width="20" height="20" viewBox="0 0 20 20" fill="none" xmlns="http://www.w3.org/2000/svg">
<path d="M7.67799 9.29C7.4892 9.1017 7.23314 8.99591 6.96614 8.99591C6.69915 8.99591 6.44309 9.1017 6.2543 9.29C6.0655 9.4783 5.95944 9.7337 5.95944 10C5.95944 10.2663 6.0655 10.5217 6.2543 10.71L9.26211 13.71C9.35579 13.8027 9.4669 13.876 9.58905 13.9258C9.7112 13.9755 9.84201 14.0008 9.97396 14C10.1112 13.9957 10.2461 13.9632 10.3703 13.9048C10.4945 13.8463 10.6053 13.763 10.6958 13.66L17.7141 5.66C17.8761 5.45933 17.9542 5.20401 17.9322 4.94728C17.9101 4.69056 17.7895 4.45223 17.5956 4.28201C17.4016 4.11179 17.1493 4.0228 16.8912 4.0336C16.6331 4.04441 16.3891 4.15417 16.2101 4.34L9.97396 11.54L7.67799 9.29Z" fill="black"/>
<path d="M18.9974 9C18.7315 9 18.4765 9.10536 18.2884 9.29289C18.1004 9.48043 17.9948 9.73478 17.9948 10C17.9948 12.1217 17.1497 14.1566 15.6455 15.6569C14.1413 17.1571 12.1012 18 9.97396 18C8.38993 17.9993 6.84159 17.5308 5.52417 16.6535C4.20674 15.7763 3.17924 14.5297 2.57121 13.0708C1.96319 11.6119 1.80188 10.0061 2.10762 8.45589C2.41336 6.90569 3.17246 5.48048 4.2892 4.36C5.03183 3.60938 5.9171 3.01404 6.89322 2.60881C7.86933 2.20358 8.91667 1.99661 9.97396 2C10.6151 2.004 11.2538 2.07777 11.8789 2.22C12.0097 2.26035 12.1474 2.27356 12.2835 2.2588C12.4197 2.24404 12.5513 2.20163 12.6704 2.13418C12.7894 2.06673 12.8934 1.97567 12.9758 1.86662C13.0582 1.75757 13.1174 1.63284 13.1496 1.50011C13.1818 1.36739 13.1865 1.22948 13.1632 1.0949C13.14 0.960317 13.0894 0.831909 13.0144 0.717592C12.9395 0.603274 12.842 0.505471 12.7277 0.430211C12.6134 0.354952 12.485 0.303831 12.3501 0.28C11.5713 0.0972427 10.7741 0.00330743 9.97396 0C7.99315 0.0102635 6.05978 0.605521 4.41783 1.71065C2.77587 2.81578 1.49892 4.38126 0.748118 6.20953C-0.00268447 8.0378 -0.193689 10.0469 0.199207 11.9834C0.592104 13.9198 1.55129 15.6968 2.95573 17.09C4.81726 18.9475 7.34077 19.9939 9.97396 20C12.633 20 15.1832 18.9464 17.0634 17.0711C18.9437 15.1957 20 12.6522 20 10C20 9.73478 19.8944 9.48043 19.7063 9.29289C19.5183 9.10536 19.2633 9 18.9974 9Z" fill="black"/>
</svg>
