<svg width="18" height="21" viewBox="0 0 18 21" fill="none" xmlns="http://www.w3.org/2000/svg">
<g clip-path="url(#clip0_726:930)">
<path d="M16.2804 13.2049L5.10242 20.1182C4.58399 20.4388 3.98873 20.6158 3.37831 20.6309C2.7679 20.6459 2.16454 20.4985 1.63077 20.2038C1.09699 19.9091 0.65222 19.4779 0.342546 18.9549C0.0328725 18.4319 -0.130438 17.8361 -0.13046 17.2293L-0.13046 3.40265C-0.130437 2.79582 0.0328732 2.20003 0.342547 1.67703C0.652221 1.15402 1.09699 0.722838 1.63077 0.428153C2.16454 0.133468 2.7679 -0.0139955 3.37831 0.00104492C3.98873 0.0160853 4.58399 0.193082 5.10242 0.513693L16.2815 7.427C16.7755 7.73253 17.1829 8.15812 17.4655 8.66359C17.748 9.16906 17.8962 9.73774 17.8962 10.316C17.8962 10.8942 17.748 11.4629 17.4655 11.9683C17.1829 12.4738 16.7755 12.8994 16.2815 13.2049L16.2804 13.2049Z" fill="#7A7A7A"/>
</g>
<defs>
<clipPath id="clip0_726:930">
<rect width="21" height="18" fill="white" transform="translate(18) rotate(90)"/>
</clipPath>
</defs>
</svg>
