<svg width="38" height="38" viewBox="0 0 38 38" fill="none" xmlns="http://www.w3.org/2000/svg">
<path d="M38 18.981C38 8.5025 29.488 0 19 0C8.512 0 0 8.5025 0 18.981C0 24.7523 2.622 29.9535 6.726 33.4447C6.764 33.4827 6.802 33.4828 6.802 33.5208C7.144 33.7868 7.486 34.0527 7.866 34.3187C8.056 34.4327 8.208 34.5824 8.398 34.7344C11.5379 36.8632 15.2444 38.0009 19.038 38C22.8316 38.0009 26.5381 36.8632 29.678 34.7344C29.868 34.6204 30.02 34.4708 30.21 34.3544C30.552 34.0908 30.932 33.8248 31.274 33.5588C31.312 33.5208 31.35 33.5207 31.35 33.4827C35.378 29.9511 38 24.7523 38 18.981V18.981ZM19 35.6084C15.428 35.6084 12.16 34.4684 9.462 32.5707C9.5 32.2667 9.576 31.9651 9.652 31.6611C9.87843 30.8372 10.2105 30.0461 10.64 29.3075C11.058 28.5855 11.552 27.9395 12.16 27.3695C12.73 26.7995 13.414 26.2699 14.098 25.8519C14.82 25.4339 15.58 25.1299 16.416 24.9019C17.2585 24.6748 18.1274 24.5606 19 24.5623C21.5903 24.5439 24.0854 25.5375 25.954 27.3315C26.828 28.2055 27.512 29.2315 28.006 30.4071C28.272 31.0911 28.462 31.8131 28.576 32.5707C25.7715 34.5424 22.4282 35.6029 19 35.6084ZM13.186 18.0334C12.8512 17.2668 12.6828 16.4379 12.692 15.6014C12.692 14.7677 12.844 13.9317 13.186 13.1718C13.528 12.4118 13.984 11.7301 14.554 11.1601C15.124 10.5901 15.808 10.1365 16.568 9.7945C17.328 9.4525 18.164 9.3005 19 9.3005C19.874 9.3005 20.672 9.4525 21.432 9.7945C22.192 10.1365 22.876 10.5925 23.446 11.1601C24.016 11.7301 24.472 12.4141 24.814 13.1718C25.156 13.9317 25.308 14.7677 25.308 15.6014C25.308 16.4754 25.156 17.2734 24.814 18.031C24.4839 18.7798 24.0204 19.4622 23.446 20.045C22.863 20.6185 22.1806 21.0813 21.432 21.4106C19.8617 22.0559 18.1003 22.0559 16.53 21.4106C15.7814 21.0813 15.099 20.6185 14.516 20.045C13.9408 19.4707 13.4883 18.7855 13.186 18.031V18.0334ZM30.818 30.6351C30.818 30.5591 30.78 30.5211 30.78 30.4451C30.4063 29.2562 29.8554 28.1305 29.146 27.1059C28.4359 26.0737 27.5633 25.1633 26.562 24.4102C25.7973 23.835 24.9684 23.3504 24.092 22.9663C24.4907 22.7032 24.8602 22.3983 25.194 22.0566C25.7605 21.4973 26.2581 20.8722 26.676 20.1946C27.5176 18.8119 27.9522 17.2199 27.93 15.6014C27.9418 14.4032 27.709 13.2153 27.246 12.1101C26.7889 11.0453 26.1309 10.0784 25.308 9.2625C24.4863 8.45507 23.5193 7.8104 22.458 7.3625C21.351 6.90031 20.1615 6.66839 18.962 6.68087C17.7623 6.66914 16.5728 6.90187 15.466 7.36488C14.3955 7.81182 13.4261 8.47016 12.616 9.3005C11.8086 10.1213 11.1639 11.0875 10.716 12.1481C10.253 13.2533 10.0202 14.4412 10.032 15.6394C10.032 16.4754 10.146 17.2734 10.374 18.031C10.602 18.829 10.906 19.551 11.324 20.2326C11.704 20.9166 12.236 21.5246 12.806 22.0946C13.148 22.4366 13.528 22.7382 13.946 23.0042C13.0669 23.3986 12.2377 23.8961 11.476 24.4863C10.488 25.2463 9.614 26.1559 8.892 27.1439C8.17536 28.1642 7.62394 29.2911 7.258 30.4831C7.22 30.5591 7.22 30.6351 7.22 30.6731C4.218 27.6355 2.356 23.5363 2.356 18.981C2.356 9.8325 9.842 2.35362 19 2.35362C28.158 2.35362 35.644 9.8325 35.644 18.981C35.639 23.3509 33.9039 27.541 30.818 30.6351V30.6351Z" fill="#0B040E"/>
</svg>
