<svg width="35" height="35" viewBox="0 0 35 35" fill="none" xmlns="http://www.w3.org/2000/svg">
<path d="M26.8027 16.9778L12.5198 25.8663C11.8573 26.2785 11.0967 26.5061 10.3167 26.5254C9.53677 26.5448 8.76582 26.3552 8.08377 25.9763C7.40173 25.5974 6.83341 25.043 6.43771 24.3706C6.04202 23.6982 5.83335 22.9321 5.83332 22.1519L5.83332 4.37484C5.83335 3.59462 6.04202 2.82861 6.43771 2.15618C6.83341 1.48374 7.40173 0.929364 8.08377 0.550483C8.76582 0.171601 9.53677 -0.0179942 10.3168 0.00134347C11.0967 0.0206811 11.8573 0.248248 12.5198 0.660462L26.8042 9.54901C27.4353 9.94183 27.956 10.489 28.317 11.1389C28.678 11.7888 28.8674 12.52 28.8674 13.2634C28.8674 14.0068 28.678 14.738 28.317 15.3879C27.956 16.0378 27.4353 16.5849 26.8042 16.9778L26.8027 16.9778Z" fill="#7A7A7A"/>
</svg>
