<svg width="20" height="24" viewBox="0 0 20 24" fill="none" xmlns="http://www.w3.org/2000/svg">
<path d="M17 10.9167H3C1.89543 10.9167 1 11.8867 1 13.0834V20.6667C1 21.8633 1.89543 22.8334 3 22.8334H17C18.1046 22.8334 19 21.8633 19 20.6667V13.0834C19 11.8867 18.1046 10.9167 17 10.9167Z" stroke="#793093" stroke-width="1.66667" stroke-linecap="round" stroke-linejoin="round"/>
<path d="M5 10.9167V6.58335C5 5.14676 5.52678 3.76901 6.46447 2.75319C7.40215 1.73737 8.67392 1.16669 10 1.16669C11.3261 1.16669 12.5979 1.73737 13.5355 2.75319C14.4732 3.76901 15 5.14676 15 6.58335V10.9167" stroke="#793093" stroke-width="1.66667" stroke-linecap="round" stroke-linejoin="round"/>
</svg>
