<svg width="21" height="24" viewBox="0 0 21 24" fill="none" xmlns="http://www.w3.org/2000/svg">
<path d="M10.75 10.75C9.58968 10.75 8.47688 10.2891 7.65641 9.46859C6.83594 8.64812 6.375 7.53532 6.375 6.375C6.375 5.21468 6.83594 4.10188 7.65641 3.28141C8.47688 2.46094 9.58968 2 10.75 2C11.9103 2 13.0231 2.46094 13.8436 3.28141C14.6641 4.10188 15.125 5.21468 15.125 6.375C15.125 7.53532 14.6641 8.64812 13.8436 9.46859C13.0231 10.2891 11.9103 10.75 10.75 10.75Z" stroke="#793093" stroke-width="2.91667" stroke-linecap="round"/>
<path d="M2 22.4167V20.9583C2 19.4112 2.61458 17.9275 3.70854 16.8335C4.80251 15.7396 6.28624 15.125 7.83333 15.125H13.6667C15.2138 15.125 16.6975 15.7396 17.7915 16.8335C18.8854 17.9275 19.5 19.4112 19.5 20.9583V22.4167" stroke="#793093" stroke-width="2.91667" stroke-linecap="round"/>
</svg>
