<svg width="20" height="23" viewBox="0 0 20 23" fill="none" xmlns="http://www.w3.org/2000/svg">
<path d="M9.75 9.75C8.58968 9.75 7.47688 9.28906 6.65641 8.46859C5.83594 7.64812 5.375 6.53532 5.375 5.375C5.375 4.21468 5.83594 3.10188 6.65641 2.28141C7.47688 1.46094 8.58968 1 9.75 1C10.9103 1 12.0231 1.46094 12.8436 2.28141C13.6641 3.10188 14.125 4.21468 14.125 5.375C14.125 6.53532 13.6641 7.64812 12.8436 8.46859C12.0231 9.28906 10.9103 9.75 9.75 9.75Z" stroke="#793093" stroke-width="1.7" stroke-linecap="round"/>
<path d="M1 21.4167V19.9583C1 18.4112 1.61458 16.9275 2.70854 15.8335C3.80251 14.7396 5.28624 14.125 6.83333 14.125H12.6667C14.2138 14.125 15.6975 14.7396 16.7915 15.8335C17.8854 16.9275 18.5 18.4112 18.5 19.9583V21.4167" stroke="#793093" stroke-width="1.7" stroke-linecap="round"/>
</svg>
