<svg width="23" height="29" viewBox="0 0 23 29" fill="none" xmlns="http://www.w3.org/2000/svg">
<g clip-path="url(#clip0_715:2622)">
<path d="M11.5007 -0.0833282C7.48003 -0.0833282 4.20898 3.18771 4.20898 7.20834V11.5833H2.75065C1.14211 11.5833 -0.166016 12.8915 -0.166016 14.5V26.1667C-0.166016 27.7752 1.14211 29.0833 2.75065 29.0833H20.2507C21.8592 29.0833 23.1673 27.7752 23.1673 26.1667V14.5C23.1673 12.8915 21.8592 11.5833 20.2507 11.5833H18.7923V7.20834C18.7923 3.18771 15.5213 -0.0833282 11.5007 -0.0833282ZM20.2507 14.5L20.2536 26.1667H2.75065V14.5H20.2507ZM7.12565 11.5833V7.20834C7.12565 4.79626 9.08857 2.83334 11.5007 2.83334C13.9127 2.83334 15.8757 4.79626 15.8757 7.20834V11.5833H7.12565Z" fill="#793093"/>
</g>
<defs>
<clipPath id="clip0_715:2622">
<rect width="23" height="29" fill="white"/>
</clipPath>
</defs>
</svg>
