<svg width="35" height="35" viewBox="0 0 35 35" fill="none" xmlns="http://www.w3.org/2000/svg">
<path d="M13.2067 27.9781L3.45864 18.2848C3.40242 18.2289 3.35781 18.1624 3.32737 18.0892C3.29692 18.016 3.28125 17.9375 3.28125 17.8582C3.28125 17.7789 3.29692 17.7004 3.32737 17.6272C3.35781 17.554 3.40242 17.4875 3.45864 17.4316L5.91958 14.968C6.15473 14.7328 6.53481 14.7328 6.76997 14.968L13.1875 21.3473C13.4227 21.5824 13.8055 21.5797 14.0407 21.3445L28.2211 7.02733C28.4563 6.78944 28.8391 6.78944 29.077 7.0246L31.5407 9.48827C31.7758 9.72343 31.7758 10.1035 31.5434 10.3387L16.0942 25.9273L16.0969 25.9301L14.0598 27.9781C13.8247 28.2133 13.4418 28.2133 13.2067 27.9781Z" fill="#E0E0E0" stroke="#E0E0E0" stroke-width="1.64062" stroke-miterlimit="10"/>
</svg>
