<svg width="20" height="20" viewBox="0 0 20 20" fill="none" xmlns="http://www.w3.org/2000/svg">
<path d="M5.58325 10C5.58637 10.9236 5.70204 11.8433 5.9277 12.7389H9.52769V7.47223H5.8777C5.68565 8.30122 5.58689 9.14907 5.58325 10Z" fill="#1E0B25"/>
<path d="M10.4722 7.47223V12.7389H14.0722C14.3072 11.8445 14.4322 10.9247 14.4444 10C14.4426 9.14928 14.3457 8.30143 14.1555 7.47223H10.4722Z" fill="#1E0B25"/>
<path d="M9.99998 1.11115C8.24192 1.11115 6.52334 1.63247 5.06157 2.60919C3.5998 3.58592 2.46049 4.97417 1.78771 6.5984C1.11494 8.22264 0.938906 10.0099 1.28189 11.7342C1.62487 13.4584 2.47145 15.0423 3.71458 16.2854C4.95772 17.5286 6.54157 18.3751 8.26584 18.7181C9.99012 19.0611 11.7774 18.8851 13.4016 18.2123C15.0258 17.5395 16.4141 16.4002 17.3908 14.9384C18.3675 13.4767 18.8889 11.7581 18.8889 10C18.8889 7.64255 17.9524 5.38163 16.2854 3.71464C14.6184 2.04765 12.3575 1.11115 9.99998 1.11115ZM16.7889 13.7278H14.7778C14.3975 14.9183 13.8353 16.0427 13.1111 17.0611C12.5767 17.2941 12.0175 17.4655 11.4444 17.5723C12.4708 16.457 13.2607 15.1455 13.7666 13.7167H10.4778V17.6889H9.53887V13.7278H6.23331C6.73854 15.1585 7.52852 16.472 8.55553 17.5889C7.99423 17.4833 7.44642 17.3157 6.9222 17.0889C6.19544 16.0619 5.63313 14.928 5.25553 13.7278H3.21109C3.03361 13.404 2.87951 13.068 2.74998 12.7223H4.9722C4.76397 11.8296 4.6559 10.9166 4.64998 10C4.65028 9.15044 4.73966 8.30321 4.91664 7.47226H2.64442C2.76125 7.12753 2.90235 6.7915 3.06664 6.4667H5.18331C5.58047 5.14395 6.1964 3.89706 7.00553 2.77781C7.51863 2.56521 8.05322 2.40874 8.59998 2.31114C7.49479 3.49728 6.66071 4.90953 6.15553 6.45003H9.53887V2.22226H10.4778V6.4667H13.8611C13.3568 4.92866 12.5247 3.51842 11.4222 2.33337C11.9681 2.42392 12.5026 2.57293 13.0166 2.77781C13.8211 3.88898 14.435 5.12624 14.8333 6.43892H16.9278C17.092 6.76373 17.2331 7.09975 17.35 7.44448H15.0944C15.2752 8.28432 15.3665 9.14096 15.3666 10C15.3638 10.922 15.2576 11.8407 15.05 12.7389H17.2722C17.1347 13.0796 16.9732 13.4101 16.7889 13.7278Z" fill="#1E0B25"/>
</svg>
