<svg width="27" height="25" viewBox="0 0 27 25" fill="none" xmlns="http://www.w3.org/2000/svg">
<path d="M19.1919 4.21044L22.2806 7.0331L19.1919 4.21044ZM21.1782 1.72377L12.8263 9.35977C12.3947 9.75377 12.1004 10.2557 11.9804 10.8024L11.209 14.3331L15.0707 13.6264C15.6686 13.5171 16.2169 13.2491 16.6486 12.8544L25.0004 5.21844C25.2514 4.98897 25.4505 4.71656 25.5863 4.41675C25.7222 4.11694 25.7921 3.79561 25.7921 3.4711C25.7921 3.14659 25.7222 2.82526 25.5863 2.52545C25.4505 2.22564 25.2514 1.95323 25.0004 1.72377C24.7495 1.49431 24.4515 1.31229 24.1236 1.1881C23.7957 1.06392 23.4442 1 23.0893 1C22.7344 1 22.3829 1.06392 22.055 1.1881C21.7271 1.31229 21.4291 1.49431 21.1782 1.72377V1.72377Z" stroke="#FCC521" stroke-width="2" stroke-linecap="round" stroke-linejoin="round"/>
<path d="M22.875 16.9998V20.9998C22.875 21.707 22.5677 22.3853 22.0207 22.8854C21.4737 23.3855 20.7319 23.6664 19.9583 23.6664H3.91667C3.14312 23.6664 2.40125 23.3855 1.85427 22.8854C1.30729 22.3853 1 21.707 1 20.9998V6.33311C1 5.62587 1.30729 4.94759 1.85427 4.44749C2.40125 3.94739 3.14312 3.66644 3.91667 3.66644H8.29167" stroke="#FCC521" stroke-width="2" stroke-linecap="round" stroke-linejoin="round"/>
</svg>
