<svg width="17" height="17" viewBox="0 0 17 17" fill="none" xmlns="http://www.w3.org/2000/svg">
<path fill-rule="evenodd" clip-rule="evenodd" d="M8.5 0C3.80375 0 0 3.80375 0 8.5C0 12.2613 2.43312 15.4381 5.81187 16.5644C6.23687 16.6388 6.39625 16.3838 6.39625 16.1606C6.39625 15.9588 6.38562 15.2894 6.38562 14.5775C4.25 14.9706 3.6975 14.0569 3.5275 13.5788C3.43187 13.3344 3.0175 12.58 2.65625 12.3781C2.35875 12.2188 1.93375 11.8256 2.64562 11.815C3.315 11.8044 3.79312 12.4313 3.9525 12.6863C4.7175 13.9719 5.93937 13.6106 6.42812 13.3875C6.5025 12.835 6.72563 12.4631 6.97 12.2506C5.07875 12.0381 3.1025 11.305 3.1025 8.05375C3.1025 7.12938 3.43187 6.36438 3.97375 5.76938C3.88875 5.55688 3.59125 4.68563 4.05875 3.51688C4.05875 3.51688 4.77062 3.29375 6.39625 4.38813C7.07625 4.19688 7.79875 4.10125 8.52125 4.10125C9.24375 4.10125 9.96625 4.19688 10.6462 4.38813C12.2719 3.28313 12.9837 3.51688 12.9837 3.51688C13.4512 4.68563 13.1538 5.55688 13.0688 5.76938C13.6106 6.36438 13.94 7.11875 13.94 8.05375C13.94 11.3156 11.9531 12.0381 10.0619 12.2506C10.37 12.5163 10.6356 13.0262 10.6356 13.8231C10.6356 14.96 10.625 15.8738 10.625 16.1606C10.625 16.3838 10.7844 16.6494 11.2094 16.5644C12.8968 15.9947 14.363 14.9102 15.4018 13.4636C16.4405 12.0169 16.9995 10.281 17 8.5C17 3.80375 13.1962 0 8.5 0Z" fill="#FFF8DC"/>
</svg>
