<svg width="54" height="54" viewBox="0 0 54 54" fill="none" xmlns="http://www.w3.org/2000/svg">
<g clip-path="url(#clip0_885:89)">
<path d="M31.257 18.9144C31.2182 18.8605 31.1671 18.8166 31.1079 18.7863C31.0488 18.756 30.9833 18.7402 30.9169 18.7402C30.8504 18.7402 30.7849 18.756 30.7258 18.7863C30.6667 18.8166 30.6156 18.8605 30.5767 18.9144L21.19 31.887C20.9896 32.1665 21.19 32.5568 21.5328 32.5568H24.006C24.5439 32.5568 25.0554 32.2984 25.3718 31.8607L30.9142 24.1931L36.4619 31.8607C36.7783 32.2984 37.2845 32.5568 37.8277 32.5568H40.3009C40.6437 32.5568 40.8441 32.1665 40.6437 31.887L31.257 18.9144Z" fill="#FFF8DC" fill-opacity="0.8"/>
<path d="M30.625 3C17.5785 3 7 13.5785 7 26.625C7 39.6715 17.5785 50.25 30.625 50.25C43.6715 50.25 54.25 39.6715 54.25 26.625C54.25 13.5785 43.6715 3 30.625 3ZM30.625 46.2422C19.7934 46.2422 11.0078 37.4566 11.0078 26.625C11.0078 15.7934 19.7934 7.00781 30.625 7.00781C41.4566 7.00781 50.2422 15.7934 50.2422 26.625C50.2422 37.4566 41.4566 46.2422 30.625 46.2422Z" fill="#FFF8DC" fill-opacity="0.8"/>
</g>
<defs>
<clipPath id="clip0_885:89">
<rect width="54" height="54" fill="white"/>
</clipPath>
</defs>
</svg>
