<svg width="40" height="32" viewBox="0 0 40 32" fill="none" xmlns="http://www.w3.org/2000/svg">
<g clip-path="url(#clip0_546:736)">
<path d="M40.0832 16.0417L34.2374 13.8758C33.7391 11.6717 32.4933 10.4067 32.4933 10.4067C31.7475 9.65943 30.8617 9.0666 29.8865 8.66212C28.9114 8.25763 27.866 8.04943 26.8103 8.04943C25.7546 8.04943 24.7093 8.25763 23.7341 8.66212C22.759 9.0666 21.8732 9.65943 21.1274 10.4067L18.2908 13.2433L5.58325 -0.25C3.66658 7.41667 5.58325 15.0833 10.2791 21.255L-0.166748 31.375C-0.166748 31.375 16.8724 35.2083 26.8007 27.4458C32.0907 23.3058 33.2791 20.8908 34.0266 18.3417L40.0832 16.0417ZM29.9441 16.4633C29.1966 17.2108 27.9699 17.2108 27.2224 16.4633C27.0447 16.286 26.9038 16.0754 26.8076 15.8435C26.7114 15.6117 26.6619 15.3631 26.6619 15.1121C26.6619 14.8611 26.7114 14.6125 26.8076 14.3806C26.9038 14.1488 27.0447 13.9382 27.2224 13.7608C27.9699 13.0133 29.1966 13.0133 29.9441 13.7608C30.6916 14.5083 30.6916 15.7158 29.9441 16.4633Z" fill="#1E0B25"/>
</g>
<defs>
<clipPath id="clip0_546:736">
<rect width="40" height="32" fill="white"/>
</clipPath>
</defs>
</svg>
