<svg width="35" height="35" viewBox="0 0 35 35" fill="none" xmlns="http://www.w3.org/2000/svg">
<path d="M19.8645 12.9375C18.4851 12.9375 12.5624 13.0729 8.75 18.813V12.9375C8.75 9.31855 5.80645 6.375 2.1875 6.375C0.97959 6.375 0 7.35459 0 8.5625C0 9.77041 0.97959 10.75 2.1875 10.75C3.39336 10.75 4.375 11.7316 4.375 12.9375V30.4375C4.375 32.8506 6.33691 34.8125 8.75 34.8125H20.7812C21.3855 34.8125 21.875 34.323 21.875 33.7188V32.625C21.875 31.4171 20.8954 30.4375 19.6875 30.4375H17.5L26.25 23.875V33.7188C26.25 34.323 26.7395 34.8125 27.3438 34.8125H29.5312C30.1355 34.8125 30.625 34.323 30.625 33.7188V19.6271C29.9216 19.8097 29.197 19.9375 28.4375 19.9375C24.2122 19.9375 20.6773 16.9263 19.8645 12.9375ZM30.625 6.375H26.25L21.875 2V11.1875C21.875 14.8119 24.8131 17.75 28.4375 17.75C32.0619 17.75 35 14.8119 35 11.1875V2L30.625 6.375ZM25.7031 11.8438C25.0988 11.8438 24.6094 11.3543 24.6094 10.75C24.6094 10.1457 25.0988 9.65625 25.7031 9.65625C26.3074 9.65625 26.7969 10.1457 26.7969 10.75C26.7969 11.3543 26.3074 11.8438 25.7031 11.8438ZM31.1719 11.8438C30.5676 11.8438 30.0781 11.3543 30.0781 10.75C30.0781 10.1457 30.5676 9.65625 31.1719 9.65625C31.7762 9.65625 32.2656 10.1457 32.2656 10.75C32.2656 11.3543 31.7762 11.8438 31.1719 11.8438Z" fill="#1E0B25"/>
</svg>
