<svg width="35" height="35" viewBox="0 0 35 35" fill="none" xmlns="http://www.w3.org/2000/svg">
<path d="M18.1668 15.127L27.2778 18.7876V33.7207C27.2778 34.0108 27.1753 34.289 26.993 34.4941C26.8107 34.6992 26.5634 34.8145 26.3056 34.8145H22.4167C22.1588 34.8145 21.9115 34.6992 21.7292 34.4941C21.5469 34.289 21.4444 34.0108 21.4444 33.7207V26.0645H11.7222V33.7207C11.7222 34.0108 11.6198 34.289 11.4375 34.4941C11.2551 34.6992 11.0078 34.8145 10.75 34.8145H6.86111C6.60326 34.8145 6.35597 34.6992 6.17365 34.4941C5.99132 34.289 5.88889 34.0108 5.88889 33.7207V19.098C3.6309 18.1922 2 15.7873 2 12.9395C2 12.3593 2.20486 11.8029 2.56951 11.3927C2.93417 10.9824 3.42875 10.752 3.94444 10.752C4.46014 10.752 4.95472 10.9824 5.31937 11.3927C5.68403 11.8029 5.88889 12.3593 5.88889 12.9395C5.88985 13.5193 6.09502 14.0751 6.45947 14.4851C6.82391 14.8951 7.31793 15.1259 7.83333 15.127H18.1668ZM33.1111 7.47071V9.65821C33.1111 10.8185 32.7014 11.9313 31.9721 12.7518C31.2428 13.5723 30.2536 14.0332 29.2222 14.0332H27.2778V16.4654L19.5 13.3407V3.0957C19.5 2.12158 20.5464 1.6335 21.1595 2.32256L22.8171 4.18945H26.0759C26.7388 4.18945 27.519 4.73086 27.8149 5.39873L28.25 6.37695H32.1389C32.3967 6.37695 32.644 6.49219 32.8264 6.69731C33.0087 6.90242 33.1111 7.18062 33.1111 7.47071ZM26.3056 7.47071C26.3056 7.25438 26.2485 7.04292 26.1417 6.86305C26.0349 6.68318 25.883 6.54299 25.7054 6.46021C25.5277 6.37743 25.3323 6.35577 25.1437 6.39797C24.9551 6.44017 24.7818 6.54434 24.6459 6.69731C24.5099 6.85027 24.4173 7.04516 24.3798 7.25732C24.3423 7.46949 24.3615 7.68941 24.4351 7.88926C24.5087 8.08912 24.6333 8.25994 24.7932 8.38013C24.9531 8.50031 25.141 8.56446 25.3333 8.56446C25.5912 8.56446 25.8385 8.44922 26.0208 8.2441C26.2031 8.03898 26.3056 7.76079 26.3056 7.47071Z" fill="#1E0B25"/>
</svg>
