<svg width="40" height="40" viewBox="0 0 40 40" fill="none" xmlns="http://www.w3.org/2000/svg">
<path d="M36.6665 10V15.8333L34.1665 16.6667L31.5998 12.5667C31.3832 12.2167 30.8332 12.3667 30.8332 12.7833V18.75C30.8332 20.3833 30.1832 21.85 29.1665 22.9667V35H24.9998V25H24.5832C24.2332 25 23.8832 24.95 23.5498 24.9L16.1498 23.6667L14.2832 27.0167L15.8832 35H11.6665L9.99984 27.0833C9.94984 26.5833 9.99984 26.0833 10.2665 25.65L11.9665 22.6333C11.1392 22.1731 10.446 21.5053 9.95504 20.6959C9.46409 19.8864 9.19233 18.963 9.16651 18.0167C9.09984 18.2667 9.06651 18.6333 9.11651 19.1667C9.16651 19.9 9.34984 20.9833 9.23317 22.1833C9.16651 23.3833 8.61651 24.6167 7.91651 25.4333C7.19984 26.25 6.41651 26.8167 5.58317 27.25L4.41651 26.0833C4.73317 25.3 5.04984 24.6 5.11651 23.95C5.21651 23.3333 5.09984 22.8333 4.91651 22.3833L4.03317 20.5C3.68317 19.65 3.24984 18.4167 3.33317 16.9667C3.38317 15.55 4.16651 13.7 5.64984 12.6833C7.14984 11.6667 8.76651 11.5333 10.0832 11.8C10.9165 11.9667 11.7665 12.3667 12.4998 12.9333C13.1165 12.65 13.8332 12.5 14.5832 12.5H24.1665V11.6667C24.1665 7.98333 27.1498 5 30.8332 5H36.6665L35.1832 7.23333C36.0832 7.83333 36.6665 8.85 36.6665 10Z" fill="#1E0B25"/>
</svg>
