<svg width="41" height="41" viewBox="0 0 41 41" fill="none" xmlns="http://www.w3.org/2000/svg">
<path d="M30.8354 35.875L26.1717 27.7775C26.1717 24.8221 24.3437 22.9258 22.1229 22.9258C20.5854 22.9258 19.2529 23.78 18.5696 25.0442C19.1333 24.7196 19.7996 24.5487 20.5 24.5487C22.7208 24.5487 24.5317 26.3596 24.5317 28.5804C24.5317 30.8183 22.7379 32.6463 20.5 32.6463H26.1375V35.875H11.5996C11.1896 35.875 10.7625 35.7212 10.455 35.3967C10.1516 35.093 9.98123 34.6813 9.98123 34.2521C9.98123 33.8228 10.1516 33.4112 10.455 33.1075L11.3092 32.2533C10.7283 31.9971 10.25 31.6042 9.77166 31.1942C9.39583 32.0483 8.54166 32.6463 7.55083 32.6463C6.90519 32.6463 6.286 32.3898 5.82947 31.9332C5.37293 31.4767 5.11646 30.8575 5.11646 30.2119C5.11646 29.5662 5.37293 28.947 5.82947 28.4905C6.286 28.034 6.90519 27.7775 7.55083 27.7775L8.35375 27.9142V24.5487C8.35149 23.4847 8.55941 22.4308 8.96555 21.4473C9.37169 20.4639 9.96806 19.5703 10.7204 18.8179C11.4728 18.0656 12.3664 17.4692 13.3498 17.063C14.3333 16.6569 15.3872 16.449 16.4512 16.4513H16.4854C20.1071 16.4683 22.9258 17.8862 22.9258 15.6483C22.9258 14.0596 23.2675 13.4275 23.8483 12.5392C22.6012 11.9583 21.1833 11.5996 19.6971 11.5996C18.7917 11.5996 18.0742 10.8821 18.0742 9.97667C18.0742 9.24208 18.5525 8.62708 19.2187 8.42208L18.0742 8.35375C17.1858 8.35375 16.4512 7.63625 16.4512 6.74792C16.4512 5.8425 17.1858 5.125 18.0742 5.125H19.6971C23.2846 5.125 26.4279 7.08958 28.1192 9.99375L28.5975 9.97667C29.8104 9.97667 30.9379 10.3696 31.8604 11.0187L32.6292 11.6679C36.3362 14.9992 35.875 17.2542 35.875 17.2712C35.875 19.4579 34.0642 21.2517 31.8604 21.2517L31.0233 21.1663V21.3029C31.0233 23.1992 30.2033 24.8904 28.9221 26.0863L34.5767 35.875H30.8354ZM31.0233 13.2225C30.1179 13.2225 29.4004 13.94 29.4004 14.8283C29.4004 15.7338 30.1179 16.4513 31.0233 16.4513C31.9117 16.4513 32.6462 15.7338 32.6462 14.8283C32.6462 13.94 31.9117 13.2225 31.0233 13.2225Z" fill="#1E0B25"/>
</svg>
