<svg width="35" height="22" viewBox="0 0 35 22" fill="none" xmlns="http://www.w3.org/2000/svg">
<path d="M15.6897 0.25C12.6342 0.25 10.4566 1.07 8.8915 2.45125C7.36731 3.79875 6.52618 5.5925 5.92073 7.36625L4.93565 10.2525H1.62194C1.34122 10.2525 1.072 10.3513 0.873494 10.5271C0.674993 10.7029 0.563477 10.9414 0.563477 11.19C0.563477 12.87 1.6417 14.295 3.20682 15.065L2.37557 16.8562C2.20263 17.2296 2.13604 17.6349 2.18169 18.0365C2.22734 18.438 2.38381 18.8234 2.63733 19.1587C2.89084 19.4941 3.2336 19.769 3.63539 19.9593C4.03718 20.1496 4.48567 20.2494 4.9413 20.25H8.03767C9.11307 20.25 10.0897 19.7 10.5469 18.8375L11.5447 16.9588C14.325 17.3 17.1447 17.3038 19.9264 16.9713L20.9171 18.8375C21.1408 19.2596 21.4956 19.6166 21.94 19.8668C22.3843 20.1169 22.8999 20.2498 23.4264 20.25H26.4917C26.9476 20.2494 27.3963 20.1494 27.7982 19.9589C28.2001 19.7684 28.5429 19.4932 28.7963 19.1575C29.0498 18.8219 29.206 18.4362 29.2513 18.0344C29.2966 17.6326 29.2295 17.2271 29.056 16.8538L28.3123 15.25H31.609C33.0387 15.25 34.4316 14.2713 34.4316 12.8925V11.5C34.4316 9.3675 32.3429 7.75375 29.9409 7.75375H25.7804L25.6477 7.365C25.0367 5.57625 24.1476 3.78375 22.574 2.44C20.9651 1.06875 18.7494 0.25125 15.6911 0.25125L15.6897 0.25ZM27.6998 13.375L26.4197 9.62875H29.9409C31.331 9.62875 32.3147 10.5388 32.3147 11.5V12.8925C32.3147 13.0613 32.0748 13.375 31.609 13.375H27.6998ZM22.0913 16.6413C23.4838 16.3844 24.8546 16.0427 26.1939 15.6188L27.1 17.5687C27.1408 17.6573 27.1565 17.7533 27.1457 17.8485C27.1349 17.9436 27.098 18.0349 27.0381 18.1145C26.9782 18.1941 26.8972 18.2594 26.8022 18.3048C26.7072 18.3502 26.6011 18.3743 26.4931 18.375H23.4264C23.3019 18.3747 23.18 18.3431 23.0751 18.2837C22.9701 18.2244 22.8864 18.1399 22.8336 18.04L22.0913 16.6413V16.6413ZM5.54251 15.6712C6.80279 16.0637 8.08565 16.3813 9.38122 16.6238L8.63041 18.04C8.57756 18.1401 8.49361 18.2247 8.38838 18.2841C8.28314 18.3434 8.161 18.375 8.03626 18.375H4.9413C4.83334 18.3743 4.72721 18.3502 4.6322 18.3048C4.53719 18.2594 4.45619 18.1941 4.39631 18.1145C4.33642 18.0349 4.29947 17.9436 4.28868 17.8485C4.2779 17.7533 4.29361 17.6573 4.33444 17.5687L5.22638 15.645C5.33082 15.6562 5.43807 15.665 5.54392 15.67L5.54251 15.6712ZM4.29493 12.1275L3.91106 13.2488C3.46317 12.9641 3.11176 12.5764 2.89493 12.1275H4.29493Z" fill="#1E0B25"/>
</svg>
