<svg width="259" height="72" viewBox="0 0 259 72" fill="none" xmlns="http://www.w3.org/2000/svg">
<path d="M135.04 19.576V28H132.988V24.532H129.796V28H127.744V19.576H129.796V22.876H132.988V19.576H135.04ZM136.113 24.64C136.113 23.952 136.241 23.348 136.497 22.828C136.761 22.308 137.117 21.908 137.565 21.628C138.013 21.348 138.513 21.208 139.065 21.208C139.537 21.208 139.949 21.304 140.301 21.496C140.661 21.688 140.937 21.94 141.129 22.252V21.304H143.181V28H141.129V27.052C140.929 27.364 140.649 27.616 140.289 27.808C139.937 28 139.525 28.096 139.053 28.096C138.509 28.096 138.013 27.956 137.565 27.676C137.117 27.388 136.761 26.984 136.497 26.464C136.241 25.936 136.113 25.328 136.113 24.64ZM141.129 24.652C141.129 24.14 140.985 23.736 140.697 23.44C140.417 23.144 140.073 22.996 139.665 22.996C139.257 22.996 138.909 23.144 138.621 23.44C138.341 23.728 138.201 24.128 138.201 24.64C138.201 25.152 138.341 25.56 138.621 25.864C138.909 26.16 139.257 26.308 139.665 26.308C140.073 26.308 140.417 26.16 140.697 25.864C140.985 25.568 141.129 25.164 141.129 24.652ZM148.746 21.232C149.53 21.232 150.154 21.488 150.618 22C151.09 22.504 151.326 23.2 151.326 24.088V28H149.286V24.364C149.286 23.916 149.17 23.568 148.938 23.32C148.706 23.072 148.394 22.948 148.002 22.948C147.61 22.948 147.298 23.072 147.066 23.32C146.834 23.568 146.718 23.916 146.718 24.364V28H144.666V21.304H146.718V22.192C146.926 21.896 147.206 21.664 147.558 21.496C147.91 21.32 148.306 21.232 148.746 21.232ZM152.344 24.64C152.344 23.952 152.472 23.348 152.728 22.828C152.992 22.308 153.348 21.908 153.796 21.628C154.244 21.348 154.744 21.208 155.296 21.208C155.736 21.208 156.136 21.3 156.496 21.484C156.864 21.668 157.152 21.916 157.36 22.228V19.12H159.412V28H157.36V27.04C157.168 27.36 156.892 27.616 156.532 27.808C156.18 28 155.768 28.096 155.296 28.096C154.744 28.096 154.244 27.956 153.796 27.676C153.348 27.388 152.992 26.984 152.728 26.464C152.472 25.936 152.344 25.328 152.344 24.64ZM157.36 24.652C157.36 24.14 157.216 23.736 156.928 23.44C156.648 23.144 156.304 22.996 155.896 22.996C155.488 22.996 155.14 23.144 154.852 23.44C154.572 23.728 154.432 24.128 154.432 24.64C154.432 25.152 154.572 25.56 154.852 25.864C155.14 26.16 155.488 26.308 155.896 26.308C156.304 26.308 156.648 26.16 156.928 25.864C157.216 25.568 157.36 25.164 157.36 24.652ZM168.683 26.512H165.539L165.035 28H162.887L165.935 19.576H168.311L171.359 28H169.187L168.683 26.512ZM168.155 24.928L167.111 21.844L166.079 24.928H168.155ZM176.367 21.232C177.151 21.232 177.775 21.488 178.239 22C178.711 22.504 178.947 23.2 178.947 24.088V28H176.907V24.364C176.907 23.916 176.791 23.568 176.559 23.32C176.327 23.072 176.015 22.948 175.623 22.948C175.231 22.948 174.919 23.072 174.687 23.32C174.455 23.568 174.339 23.916 174.339 24.364V28H172.287V21.304H174.339V22.192C174.547 21.896 174.827 21.664 175.179 21.496C175.531 21.32 175.927 21.232 176.367 21.232ZM179.965 24.64C179.965 23.952 180.093 23.348 180.349 22.828C180.613 22.308 180.969 21.908 181.417 21.628C181.865 21.348 182.365 21.208 182.917 21.208C183.357 21.208 183.757 21.3 184.117 21.484C184.485 21.668 184.773 21.916 184.981 22.228V19.12H187.033V28H184.981V27.04C184.789 27.36 184.513 27.616 184.153 27.808C183.801 28 183.389 28.096 182.917 28.096C182.365 28.096 181.865 27.956 181.417 27.676C180.969 27.388 180.613 26.984 180.349 26.464C180.093 25.936 179.965 25.328 179.965 24.64ZM184.981 24.652C184.981 24.14 184.837 23.736 184.549 23.44C184.269 23.144 183.925 22.996 183.517 22.996C183.109 22.996 182.761 23.144 182.473 23.44C182.193 23.728 182.053 24.128 182.053 24.64C182.053 25.152 182.193 25.56 182.473 25.864C182.761 26.16 183.109 26.308 183.517 26.308C183.925 26.308 184.269 26.16 184.549 25.864C184.837 25.568 184.981 25.164 184.981 24.652ZM197.48 22.288C197.48 22.776 197.368 23.224 197.144 23.632C196.92 24.032 196.576 24.356 196.112 24.604C195.648 24.852 195.072 24.976 194.384 24.976H193.112V28H191.06V19.576H194.384C195.056 19.576 195.624 19.692 196.088 19.924C196.552 20.156 196.9 20.476 197.132 20.884C197.364 21.292 197.48 21.76 197.48 22.288ZM194.228 23.344C194.62 23.344 194.912 23.252 195.104 23.068C195.296 22.884 195.392 22.624 195.392 22.288C195.392 21.952 195.296 21.692 195.104 21.508C194.912 21.324 194.62 21.232 194.228 21.232H193.112V23.344H194.228ZM198.141 24.64C198.141 23.952 198.269 23.348 198.525 22.828C198.789 22.308 199.145 21.908 199.593 21.628C200.041 21.348 200.541 21.208 201.093 21.208C201.565 21.208 201.977 21.304 202.329 21.496C202.689 21.688 202.965 21.94 203.157 22.252V21.304H205.209V28H203.157V27.052C202.957 27.364 202.677 27.616 202.317 27.808C201.965 28 201.553 28.096 201.081 28.096C200.537 28.096 200.041 27.956 199.593 27.676C199.145 27.388 198.789 26.984 198.525 26.464C198.269 25.936 198.141 25.328 198.141 24.64ZM203.157 24.652C203.157 24.14 203.013 23.736 202.725 23.44C202.445 23.144 202.101 22.996 201.693 22.996C201.285 22.996 200.937 23.144 200.649 23.44C200.369 23.728 200.229 24.128 200.229 24.64C200.229 25.152 200.369 25.56 200.649 25.864C200.937 26.16 201.285 26.308 201.693 26.308C202.101 26.308 202.445 26.16 202.725 25.864C203.013 25.568 203.157 25.164 203.157 24.652ZM216.305 21.304L214.493 28H212.225L211.169 23.656L210.077 28H207.821L205.997 21.304H208.049L208.997 26.092L210.125 21.304H212.297L213.437 26.068L214.373 21.304H216.305Z" fill="#FFF8DC" fill-opacity="0.8"/>
<line x1="97" y1="35.5" x2="248" y2="35.5" stroke="#FFD0D0" stroke-opacity="0.8"/>
<path d="M86.516 45.812C86.516 44.996 86.7 44.264 87.068 43.616C87.436 42.96 87.936 42.448 88.568 42.08C89.208 41.712 89.916 41.528 90.692 41.528C91.604 41.528 92.4 41.748 93.08 42.188C93.76 42.628 94.256 43.252 94.568 44.06H93.26C93.028 43.556 92.692 43.168 92.252 42.896C91.82 42.624 91.3 42.488 90.692 42.488C90.108 42.488 89.584 42.624 89.12 42.896C88.656 43.168 88.292 43.556 88.028 44.06C87.764 44.556 87.632 45.14 87.632 45.812C87.632 46.476 87.764 47.06 88.028 47.564C88.292 48.06 88.656 48.444 89.12 48.716C89.584 48.988 90.108 49.124 90.692 49.124C91.3 49.124 91.82 48.992 92.252 48.728C92.692 48.456 93.028 48.068 93.26 47.564H94.568C94.256 48.364 93.76 48.984 93.08 49.424C92.4 49.856 91.604 50.072 90.692 50.072C89.916 50.072 89.208 49.892 88.568 49.532C87.936 49.164 87.436 48.656 87.068 48.008C86.7 47.36 86.516 46.628 86.516 45.812ZM99.0615 50.108C98.4455 50.108 97.8855 49.968 97.3815 49.688C96.8855 49.408 96.4935 49.012 96.2055 48.5C95.9255 47.98 95.7855 47.38 95.7855 46.7C95.7855 46.028 95.9295 45.436 96.2175 44.924C96.5135 44.404 96.9135 44.008 97.4175 43.736C97.9215 43.456 98.4855 43.316 99.1095 43.316C99.7335 43.316 100.298 43.456 100.802 43.736C101.306 44.008 101.702 44.4 101.99 44.912C102.286 45.424 102.434 46.02 102.434 46.7C102.434 47.38 102.282 47.98 101.978 48.5C101.682 49.012 101.278 49.408 100.766 49.688C100.254 49.968 99.6855 50.108 99.0615 50.108ZM99.0615 49.148C99.4535 49.148 99.8215 49.056 100.166 48.872C100.51 48.688 100.786 48.412 100.994 48.044C101.21 47.676 101.318 47.228 101.318 46.7C101.318 46.172 101.214 45.724 101.006 45.356C100.798 44.988 100.526 44.716 100.19 44.54C99.8535 44.356 99.4895 44.264 99.0975 44.264C98.6975 44.264 98.3295 44.356 97.9935 44.54C97.6655 44.716 97.4015 44.988 97.2015 45.356C97.0015 45.724 96.9015 46.172 96.9015 46.7C96.9015 47.236 96.9975 47.688 97.1895 48.056C97.3895 48.424 97.6535 48.7 97.9815 48.884C98.3095 49.06 98.6695 49.148 99.0615 49.148ZM107.073 43.304C107.873 43.304 108.521 43.548 109.017 44.036C109.513 44.516 109.761 45.212 109.761 46.124V50H108.681V46.28C108.681 45.624 108.517 45.124 108.189 44.78C107.861 44.428 107.413 44.252 106.845 44.252C106.269 44.252 105.809 44.432 105.465 44.792C105.129 45.152 104.961 45.676 104.961 46.364V50H103.869V43.424H104.961V44.36C105.177 44.024 105.469 43.764 105.837 43.58C106.213 43.396 106.625 43.304 107.073 43.304ZM114.749 43.304C115.549 43.304 116.197 43.548 116.693 44.036C117.189 44.516 117.437 45.212 117.437 46.124V50H116.357V46.28C116.357 45.624 116.193 45.124 115.865 44.78C115.537 44.428 115.089 44.252 114.521 44.252C113.945 44.252 113.485 44.432 113.141 44.792C112.805 45.152 112.637 45.676 112.637 46.364V50H111.545V43.424H112.637V44.36C112.853 44.024 113.145 43.764 113.513 43.58C113.889 43.396 114.301 43.304 114.749 43.304ZM125.221 46.46C125.221 46.668 125.209 46.888 125.185 47.12H119.929C119.969 47.768 120.189 48.276 120.589 48.644C120.997 49.004 121.489 49.184 122.065 49.184C122.537 49.184 122.929 49.076 123.241 48.86C123.561 48.636 123.785 48.34 123.913 47.972H125.089C124.913 48.604 124.561 49.12 124.033 49.52C123.505 49.912 122.849 50.108 122.065 50.108C121.441 50.108 120.881 49.968 120.385 49.688C119.897 49.408 119.513 49.012 119.233 48.5C118.953 47.98 118.813 47.38 118.813 46.7C118.813 46.02 118.949 45.424 119.221 44.912C119.493 44.4 119.873 44.008 120.361 43.736C120.857 43.456 121.425 43.316 122.065 43.316C122.689 43.316 123.241 43.452 123.721 43.724C124.201 43.996 124.569 44.372 124.825 44.852C125.089 45.324 125.221 45.86 125.221 46.46ZM124.093 46.232C124.093 45.816 124.001 45.46 123.817 45.164C123.633 44.86 123.381 44.632 123.061 44.48C122.749 44.32 122.401 44.24 122.017 44.24C121.465 44.24 120.993 44.416 120.601 44.768C120.217 45.12 119.997 45.608 119.941 46.232H124.093ZM126.254 46.7C126.254 46.02 126.39 45.428 126.662 44.924C126.934 44.412 127.31 44.016 127.79 43.736C128.278 43.456 128.834 43.316 129.458 43.316C130.266 43.316 130.93 43.512 131.45 43.904C131.978 44.296 132.326 44.84 132.494 45.536H131.318C131.206 45.136 130.986 44.82 130.658 44.588C130.338 44.356 129.938 44.24 129.458 44.24C128.834 44.24 128.33 44.456 127.946 44.888C127.562 45.312 127.37 45.916 127.37 46.7C127.37 47.492 127.562 48.104 127.946 48.536C128.33 48.968 128.834 49.184 129.458 49.184C129.938 49.184 130.338 49.072 130.658 48.848C130.978 48.624 131.198 48.304 131.318 47.888H132.494C132.318 48.56 131.966 49.1 131.438 49.508C130.91 49.908 130.25 50.108 129.458 50.108C128.834 50.108 128.278 49.968 127.79 49.688C127.31 49.408 126.934 49.012 126.662 48.5C126.39 47.988 126.254 47.388 126.254 46.7ZM135.283 44.324V48.2C135.283 48.52 135.351 48.748 135.487 48.884C135.623 49.012 135.859 49.076 136.195 49.076H136.999V50H136.015C135.407 50 134.951 49.86 134.647 49.58C134.343 49.3 134.191 48.84 134.191 48.2V44.324H133.339V43.424H134.191V41.768H135.283V43.424H136.999V44.324H135.283ZM138.886 42.356C138.678 42.356 138.502 42.284 138.358 42.14C138.214 41.996 138.142 41.82 138.142 41.612C138.142 41.404 138.214 41.228 138.358 41.084C138.502 40.94 138.678 40.868 138.886 40.868C139.086 40.868 139.254 40.94 139.39 41.084C139.534 41.228 139.606 41.404 139.606 41.612C139.606 41.82 139.534 41.996 139.39 42.14C139.254 42.284 139.086 42.356 138.886 42.356ZM139.414 43.424V50H138.322V43.424H139.414ZM144.48 43.304C145.28 43.304 145.928 43.548 146.424 44.036C146.92 44.516 147.168 45.212 147.168 46.124V50H146.088V46.28C146.088 45.624 145.924 45.124 145.596 44.78C145.268 44.428 144.82 44.252 144.252 44.252C143.676 44.252 143.216 44.432 142.872 44.792C142.536 45.152 142.368 45.676 142.368 46.364V50H141.276V43.424H142.368V44.36C142.584 44.024 142.876 43.764 143.244 43.58C143.62 43.396 144.032 43.304 144.48 43.304ZM151.663 43.316C152.231 43.316 152.727 43.44 153.151 43.688C153.583 43.936 153.903 44.248 154.111 44.624V43.424H155.215V50.144C155.215 50.744 155.087 51.276 154.831 51.74C154.575 52.212 154.207 52.58 153.727 52.844C153.255 53.108 152.703 53.24 152.071 53.24C151.207 53.24 150.487 53.036 149.911 52.628C149.335 52.22 148.995 51.664 148.891 50.96H149.971C150.091 51.36 150.339 51.68 150.715 51.92C151.091 52.168 151.543 52.292 152.071 52.292C152.671 52.292 153.159 52.104 153.535 51.728C153.919 51.352 154.111 50.824 154.111 50.144V48.764C153.895 49.148 153.575 49.468 153.151 49.724C152.727 49.98 152.231 50.108 151.663 50.108C151.079 50.108 150.547 49.964 150.067 49.676C149.595 49.388 149.223 48.984 148.951 48.464C148.679 47.944 148.543 47.352 148.543 46.688C148.543 46.016 148.679 45.428 148.951 44.924C149.223 44.412 149.595 44.016 150.067 43.736C150.547 43.456 151.079 43.316 151.663 43.316ZM154.111 46.7C154.111 46.204 154.011 45.772 153.811 45.404C153.611 45.036 153.339 44.756 152.995 44.564C152.659 44.364 152.287 44.264 151.879 44.264C151.471 44.264 151.099 44.36 150.763 44.552C150.427 44.744 150.159 45.024 149.959 45.392C149.759 45.76 149.659 46.192 149.659 46.688C149.659 47.192 149.759 47.632 149.959 48.008C150.159 48.376 150.427 48.66 150.763 48.86C151.099 49.052 151.471 49.148 151.879 49.148C152.287 49.148 152.659 49.052 152.995 48.86C153.339 48.66 153.611 48.376 153.811 48.008C154.011 47.632 154.111 47.196 154.111 46.7ZM161.352 44.636C161.568 44.26 161.888 43.948 162.312 43.7C162.744 43.444 163.244 43.316 163.812 43.316C164.396 43.316 164.924 43.456 165.396 43.736C165.876 44.016 166.252 44.412 166.524 44.924C166.796 45.428 166.932 46.016 166.932 46.688C166.932 47.352 166.796 47.944 166.524 48.464C166.252 48.984 165.876 49.388 165.396 49.676C164.924 49.964 164.396 50.108 163.812 50.108C163.252 50.108 162.756 49.984 162.324 49.736C161.9 49.48 161.576 49.164 161.352 48.788V53.12H160.26V43.424H161.352V44.636ZM165.816 46.688C165.816 46.192 165.716 45.76 165.516 45.392C165.316 45.024 165.044 44.744 164.7 44.552C164.364 44.36 163.992 44.264 163.584 44.264C163.184 44.264 162.812 44.364 162.468 44.564C162.132 44.756 161.86 45.04 161.652 45.416C161.452 45.784 161.352 46.212 161.352 46.7C161.352 47.196 161.452 47.632 161.652 48.008C161.86 48.376 162.132 48.66 162.468 48.86C162.812 49.052 163.184 49.148 163.584 49.148C163.992 49.148 164.364 49.052 164.7 48.86C165.044 48.66 165.316 48.376 165.516 48.008C165.716 47.632 165.816 47.192 165.816 46.688ZM174.369 46.46C174.369 46.668 174.357 46.888 174.333 47.12H169.077C169.117 47.768 169.337 48.276 169.737 48.644C170.145 49.004 170.637 49.184 171.213 49.184C171.685 49.184 172.077 49.076 172.389 48.86C172.709 48.636 172.933 48.34 173.061 47.972H174.237C174.061 48.604 173.709 49.12 173.181 49.52C172.653 49.912 171.997 50.108 171.213 50.108C170.589 50.108 170.029 49.968 169.533 49.688C169.045 49.408 168.661 49.012 168.381 48.5C168.101 47.98 167.961 47.38 167.961 46.7C167.961 46.02 168.097 45.424 168.369 44.912C168.641 44.4 169.021 44.008 169.509 43.736C170.005 43.456 170.573 43.316 171.213 43.316C171.837 43.316 172.389 43.452 172.869 43.724C173.349 43.996 173.717 44.372 173.973 44.852C174.237 45.324 174.369 45.86 174.369 46.46ZM173.241 46.232C173.241 45.816 173.149 45.46 172.965 45.164C172.781 44.86 172.529 44.632 172.209 44.48C171.897 44.32 171.549 44.24 171.165 44.24C170.613 44.24 170.141 44.416 169.749 44.768C169.365 45.12 169.145 45.608 169.089 46.232H173.241ZM178.679 50.108C178.063 50.108 177.503 49.968 176.999 49.688C176.503 49.408 176.111 49.012 175.823 48.5C175.543 47.98 175.403 47.38 175.403 46.7C175.403 46.028 175.547 45.436 175.835 44.924C176.131 44.404 176.531 44.008 177.035 43.736C177.539 43.456 178.103 43.316 178.727 43.316C179.351 43.316 179.915 43.456 180.419 43.736C180.923 44.008 181.319 44.4 181.607 44.912C181.903 45.424 182.051 46.02 182.051 46.7C182.051 47.38 181.899 47.98 181.595 48.5C181.299 49.012 180.895 49.408 180.383 49.688C179.871 49.968 179.303 50.108 178.679 50.108ZM178.679 49.148C179.071 49.148 179.439 49.056 179.783 48.872C180.127 48.688 180.403 48.412 180.611 48.044C180.827 47.676 180.935 47.228 180.935 46.7C180.935 46.172 180.831 45.724 180.623 45.356C180.415 44.988 180.143 44.716 179.807 44.54C179.471 44.356 179.107 44.264 178.715 44.264C178.315 44.264 177.947 44.356 177.611 44.54C177.283 44.716 177.019 44.988 176.819 45.356C176.619 45.724 176.519 46.172 176.519 46.7C176.519 47.236 176.615 47.688 176.807 48.056C177.007 48.424 177.271 48.7 177.599 48.884C177.927 49.06 178.287 49.148 178.679 49.148ZM184.579 44.636C184.795 44.26 185.115 43.948 185.539 43.7C185.971 43.444 186.471 43.316 187.039 43.316C187.623 43.316 188.151 43.456 188.622 43.736C189.102 44.016 189.479 44.412 189.751 44.924C190.023 45.428 190.159 46.016 190.159 46.688C190.159 47.352 190.023 47.944 189.751 48.464C189.479 48.984 189.102 49.388 188.622 49.676C188.151 49.964 187.623 50.108 187.039 50.108C186.479 50.108 185.983 49.984 185.551 49.736C185.127 49.48 184.803 49.164 184.579 48.788V53.12H183.487V43.424H184.579V44.636ZM189.043 46.688C189.043 46.192 188.943 45.76 188.743 45.392C188.543 45.024 188.271 44.744 187.927 44.552C187.591 44.36 187.219 44.264 186.811 44.264C186.411 44.264 186.039 44.364 185.695 44.564C185.359 44.756 185.087 45.04 184.879 45.416C184.679 45.784 184.579 46.212 184.579 46.7C184.579 47.196 184.679 47.632 184.879 48.008C185.087 48.376 185.359 48.66 185.695 48.86C186.039 49.052 186.411 49.148 186.811 49.148C187.219 49.148 187.591 49.052 187.927 48.86C188.271 48.66 188.543 48.376 188.743 48.008C188.943 47.632 189.043 47.192 189.043 46.688ZM192.688 41.12V50H191.596V41.12H192.688ZM200.549 46.46C200.549 46.668 200.537 46.888 200.513 47.12H195.257C195.297 47.768 195.517 48.276 195.917 48.644C196.325 49.004 196.817 49.184 197.393 49.184C197.865 49.184 198.257 49.076 198.569 48.86C198.889 48.636 199.113 48.34 199.241 47.972H200.417C200.241 48.604 199.889 49.12 199.361 49.52C198.833 49.912 198.177 50.108 197.393 50.108C196.769 50.108 196.209 49.968 195.713 49.688C195.225 49.408 194.841 49.012 194.561 48.5C194.281 47.98 194.141 47.38 194.141 46.7C194.141 46.02 194.277 45.424 194.549 44.912C194.821 44.4 195.201 44.008 195.689 43.736C196.185 43.456 196.753 43.316 197.393 43.316C198.017 43.316 198.569 43.452 199.049 43.724C199.529 43.996 199.897 44.372 200.153 44.852C200.417 45.324 200.549 45.86 200.549 46.46ZM199.421 46.232C199.421 45.816 199.329 45.46 199.145 45.164C198.961 44.86 198.709 44.632 198.389 44.48C198.077 44.32 197.729 44.24 197.345 44.24C196.793 44.24 196.321 44.416 195.929 44.768C195.545 45.12 195.325 45.608 195.269 46.232H199.421ZM213.95 43.424L211.898 50H210.77L209.186 44.78L207.602 50H206.474L204.41 43.424H205.526L207.038 48.944L208.67 43.424H209.786L211.382 48.956L212.87 43.424H213.95ZM215.597 42.356C215.389 42.356 215.213 42.284 215.069 42.14C214.925 41.996 214.853 41.82 214.853 41.612C214.853 41.404 214.925 41.228 215.069 41.084C215.213 40.94 215.389 40.868 215.597 40.868C215.797 40.868 215.965 40.94 216.101 41.084C216.245 41.228 216.317 41.404 216.317 41.612C216.317 41.82 216.245 41.996 216.101 42.14C215.965 42.284 215.797 42.356 215.597 42.356ZM216.125 43.424V50H215.033V43.424H216.125ZM219.319 44.324V48.2C219.319 48.52 219.387 48.748 219.523 48.884C219.659 49.012 219.895 49.076 220.23 49.076H221.035V50H220.051C219.443 50 218.987 49.86 218.683 49.58C218.379 49.3 218.227 48.84 218.227 48.2V44.324H217.375V43.424H218.227V41.768H219.319V43.424H221.035V44.324H219.319ZM225.622 43.304C226.118 43.304 226.566 43.412 226.966 43.628C227.366 43.836 227.678 44.152 227.902 44.576C228.134 45 228.25 45.516 228.25 46.124V50H227.17V46.28C227.17 45.624 227.006 45.124 226.678 44.78C226.35 44.428 225.902 44.252 225.334 44.252C224.758 44.252 224.298 44.432 223.954 44.792C223.618 45.152 223.45 45.676 223.45 46.364V50H222.358V41.12H223.45V44.36C223.666 44.024 223.962 43.764 224.338 43.58C224.722 43.396 225.15 43.304 225.622 43.304ZM234.325 44.636C234.541 44.26 234.861 43.948 235.285 43.7C235.717 43.444 236.217 43.316 236.785 43.316C237.369 43.316 237.897 43.456 238.369 43.736C238.849 44.016 239.225 44.412 239.497 44.924C239.769 45.428 239.905 46.016 239.905 46.688C239.905 47.352 239.769 47.944 239.497 48.464C239.225 48.984 238.849 49.388 238.369 49.676C237.897 49.964 237.369 50.108 236.785 50.108C236.225 50.108 235.729 49.984 235.297 49.736C234.873 49.48 234.549 49.164 234.325 48.788V53.12H233.233V43.424H234.325V44.636ZM238.789 46.688C238.789 46.192 238.689 45.76 238.489 45.392C238.289 45.024 238.017 44.744 237.673 44.552C237.337 44.36 236.965 44.264 236.557 44.264C236.157 44.264 235.785 44.364 235.441 44.564C235.105 44.756 234.833 45.04 234.625 45.416C234.425 45.784 234.325 46.212 234.325 46.7C234.325 47.196 234.425 47.632 234.625 48.008C234.833 48.376 235.105 48.66 235.441 48.86C235.785 49.052 236.157 49.148 236.557 49.148C236.965 49.148 237.337 49.052 237.673 48.86C238.017 48.66 238.289 48.376 238.489 48.008C238.689 47.632 238.789 47.192 238.789 46.688ZM247.342 46.46C247.342 46.668 247.33 46.888 247.306 47.12H242.05C242.09 47.768 242.31 48.276 242.71 48.644C243.118 49.004 243.61 49.184 244.186 49.184C244.658 49.184 245.05 49.076 245.362 48.86C245.682 48.636 245.906 48.34 246.034 47.972H247.21C247.034 48.604 246.682 49.12 246.154 49.52C245.626 49.912 244.97 50.108 244.186 50.108C243.562 50.108 243.002 49.968 242.506 49.688C242.018 49.408 241.634 49.012 241.354 48.5C241.074 47.98 240.934 47.38 240.934 46.7C240.934 46.02 241.07 45.424 241.342 44.912C241.614 44.4 241.994 44.008 242.482 43.736C242.978 43.456 243.546 43.316 244.186 43.316C244.81 43.316 245.362 43.452 245.842 43.724C246.322 43.996 246.69 44.372 246.946 44.852C247.21 45.324 247.342 45.86 247.342 46.46ZM246.214 46.232C246.214 45.816 246.122 45.46 245.938 45.164C245.754 44.86 245.502 44.632 245.182 44.48C244.87 44.32 244.522 44.24 244.138 44.24C243.586 44.24 243.114 44.416 242.722 44.768C242.338 45.12 242.118 45.608 242.062 46.232H246.214ZM250.115 44.324V48.2C250.115 48.52 250.183 48.748 250.319 48.884C250.455 49.012 250.691 49.076 251.027 49.076H251.831V50H250.847C250.239 50 249.783 49.86 249.479 49.58C249.175 49.3 249.023 48.84 249.023 48.2V44.324H248.171V43.424H249.023V41.768H250.115V43.424H251.831V44.324H250.115ZM255.482 50.108C254.978 50.108 254.526 50.024 254.126 49.856C253.726 49.68 253.41 49.44 253.178 49.136C252.946 48.824 252.818 48.468 252.794 48.068H253.922C253.954 48.396 254.106 48.664 254.378 48.872C254.658 49.08 255.022 49.184 255.47 49.184C255.886 49.184 256.214 49.092 256.454 48.908C256.694 48.724 256.814 48.492 256.814 48.212C256.814 47.924 256.686 47.712 256.43 47.576C256.174 47.432 255.778 47.292 255.242 47.156C254.754 47.028 254.354 46.9 254.042 46.772C253.738 46.636 253.474 46.44 253.25 46.184C253.034 45.92 252.926 45.576 252.926 45.152C252.926 44.816 253.026 44.508 253.226 44.228C253.426 43.948 253.71 43.728 254.078 43.568C254.446 43.4 254.866 43.316 255.338 43.316C256.066 43.316 256.654 43.5 257.102 43.868C257.55 44.236 257.79 44.74 257.822 45.38H256.73C256.706 45.036 256.566 44.76 256.31 44.552C256.062 44.344 255.726 44.24 255.302 44.24C254.91 44.24 254.598 44.324 254.366 44.492C254.134 44.66 254.018 44.88 254.018 45.152C254.018 45.368 254.086 45.548 254.222 45.692C254.366 45.828 254.542 45.94 254.75 46.028C254.966 46.108 255.262 46.2 255.638 46.304C256.11 46.432 256.494 46.56 256.79 46.688C257.086 46.808 257.338 46.992 257.546 47.24C257.762 47.488 257.874 47.812 257.882 48.212C257.882 48.572 257.782 48.896 257.582 49.184C257.382 49.472 257.098 49.7 256.73 49.868C256.37 50.028 255.954 50.108 255.482 50.108Z" fill="#FFF8DC" fill-opacity="0.8"/>
<path d="M23.0879 5.19503C16.569 7.83807 10.2311 13.3064 7.33382 18.8659C5.97572 21.6001 5.97572 21.6001 9.77842 23.6052C13.1284 25.3368 13.219 25.3368 18.1081 23.6052C22.8163 21.9647 31.6892 21.2355 32.8663 22.5115C33.9527 23.6052 31.5081 25.5191 29.0636 25.5191C26.4379 25.5191 24.446 26.9773 24.446 28.8912C24.446 30.1672 31.6892 35.8178 32.4136 35.0887C32.6852 34.8153 32.0514 33.8128 30.9649 32.8102C28.7919 30.714 28.3392 27.7064 30.15 27.0685C30.6933 26.8862 32.8663 27.433 34.8581 28.3444C36.85 29.2558 39.3852 30.076 40.3811 30.076C41.4676 30.076 46.6284 31.7166 51.9703 33.7216C57.2217 35.7267 62.0203 37.3672 62.6541 37.3672C64.1933 37.3672 62.9257 26.7039 60.7527 21.6001C58.1271 15.4938 52.0608 9.2963 45.723 6.28871C41.196 4.10136 39.1136 3.64567 33.5 3.73681C29.4257 3.73681 25.2608 4.37478 23.0879 5.19503Z" fill="#E4CDE1"/>
<path d="M3.89331 35.8178C4.88926 46.0254 11.046 55.0481 20.2812 59.9697C24.3555 62.157 25.8947 62.4304 33.5001 62.4304C41.1055 62.4304 42.6447 62.157 46.719 59.9697C51.246 57.6 59.7568 49.1241 59.7568 47.0279C59.6663 45.7519 45.723 37.8228 40.2001 35.9089C37.6649 35.0886 35.673 34.8152 34.7676 35.3621C33.6812 36 34.2244 36.4557 37.3933 37.276C41.9203 38.6431 47.0812 41.4684 47.0812 42.7443C47.0812 44.2937 43.1879 44.5671 39.4757 43.2912C37.3933 42.5621 33.9528 41.9241 31.6893 41.9241C28.7014 41.9241 24.8082 40.6481 16.7501 36.8203C10.7744 34.0861 5.34196 31.5342 4.61764 31.2608C3.53115 30.8051 3.44061 31.6254 3.89331 35.8178Z" fill="#E4CDE1"/>
</svg>
