<svg width="22" height="17" viewBox="0 0 22 17" fill="none" xmlns="http://www.w3.org/2000/svg">
<path fill-rule="evenodd" clip-rule="evenodd" d="M1.375 8.50006C1.375 8.35916 1.44743 8.22404 1.57636 8.12441C1.7053 8.02478 1.88016 7.96881 2.0625 7.96881H18.2779L13.9507 4.62619C13.8217 4.52643 13.7491 4.39113 13.7491 4.25006C13.7491 4.10899 13.8217 3.97369 13.9507 3.87394C14.0798 3.77418 14.2549 3.71814 14.4375 3.71814C14.6201 3.71814 14.7952 3.77418 14.9243 3.87394L20.4243 8.12394C20.4883 8.17328 20.5391 8.23191 20.5737 8.29645C20.6084 8.36099 20.6262 8.43018 20.6262 8.50006C20.6262 8.56994 20.6084 8.63913 20.5737 8.70367C20.5391 8.76821 20.4883 8.82684 20.4243 8.87619L14.9243 13.1262C14.7952 13.2259 14.6201 13.282 14.4375 13.282C14.2549 13.282 14.0798 13.2259 13.9507 13.1262C13.8217 13.0264 13.7491 12.8911 13.7491 12.7501C13.7491 12.609 13.8217 12.4737 13.9507 12.3739L18.2779 9.03131H2.0625C1.88016 9.03131 1.7053 8.97534 1.57636 8.87571C1.44743 8.77608 1.375 8.64096 1.375 8.50006V8.50006Z" fill="#006DEF"/>
</svg>
