<svg width="256" height="79" viewBox="0 0 256 79" fill="none" xmlns="http://www.w3.org/2000/svg">
<path d="M132.04 22.576V31H129.988V27.532H126.796V31H124.744V22.576H126.796V25.876H129.988V22.576H132.04ZM133.113 27.64C133.113 26.952 133.241 26.348 133.497 25.828C133.761 25.308 134.117 24.908 134.565 24.628C135.013 24.348 135.513 24.208 136.065 24.208C136.537 24.208 136.949 24.304 137.301 24.496C137.661 24.688 137.937 24.94 138.129 25.252V24.304H140.181V31H138.129V30.052C137.929 30.364 137.649 30.616 137.289 30.808C136.937 31 136.525 31.096 136.053 31.096C135.509 31.096 135.013 30.956 134.565 30.676C134.117 30.388 133.761 29.984 133.497 29.464C133.241 28.936 133.113 28.328 133.113 27.64ZM138.129 27.652C138.129 27.14 137.985 26.736 137.697 26.44C137.417 26.144 137.073 25.996 136.665 25.996C136.257 25.996 135.909 26.144 135.621 26.44C135.341 26.728 135.201 27.128 135.201 27.64C135.201 28.152 135.341 28.56 135.621 28.864C135.909 29.16 136.257 29.308 136.665 29.308C137.073 29.308 137.417 29.16 137.697 28.864C137.985 28.568 138.129 28.164 138.129 27.652ZM145.746 24.232C146.53 24.232 147.154 24.488 147.618 25C148.09 25.504 148.326 26.2 148.326 27.088V31H146.286V27.364C146.286 26.916 146.17 26.568 145.938 26.32C145.706 26.072 145.394 25.948 145.002 25.948C144.61 25.948 144.298 26.072 144.066 26.32C143.834 26.568 143.718 26.916 143.718 27.364V31H141.666V24.304H143.718V25.192C143.926 24.896 144.206 24.664 144.558 24.496C144.91 24.32 145.306 24.232 145.746 24.232ZM149.344 27.64C149.344 26.952 149.472 26.348 149.728 25.828C149.992 25.308 150.348 24.908 150.796 24.628C151.244 24.348 151.744 24.208 152.296 24.208C152.736 24.208 153.136 24.3 153.496 24.484C153.864 24.668 154.152 24.916 154.36 25.228V22.12H156.412V31H154.36V30.04C154.168 30.36 153.892 30.616 153.532 30.808C153.18 31 152.768 31.096 152.296 31.096C151.744 31.096 151.244 30.956 150.796 30.676C150.348 30.388 149.992 29.984 149.728 29.464C149.472 28.936 149.344 28.328 149.344 27.64ZM154.36 27.652C154.36 27.14 154.216 26.736 153.928 26.44C153.648 26.144 153.304 25.996 152.896 25.996C152.488 25.996 152.14 26.144 151.852 26.44C151.572 26.728 151.432 27.128 151.432 27.64C151.432 28.152 151.572 28.56 151.852 28.864C152.14 29.16 152.488 29.308 152.896 29.308C153.304 29.308 153.648 29.16 153.928 28.864C154.216 28.568 154.36 28.164 154.36 27.652ZM165.683 29.512H162.539L162.035 31H159.887L162.935 22.576H165.311L168.359 31H166.187L165.683 29.512ZM165.155 27.928L164.111 24.844L163.079 27.928H165.155ZM173.367 24.232C174.151 24.232 174.775 24.488 175.239 25C175.711 25.504 175.947 26.2 175.947 27.088V31H173.907V27.364C173.907 26.916 173.791 26.568 173.559 26.32C173.327 26.072 173.015 25.948 172.623 25.948C172.231 25.948 171.919 26.072 171.687 26.32C171.455 26.568 171.339 26.916 171.339 27.364V31H169.287V24.304H171.339V25.192C171.547 24.896 171.827 24.664 172.179 24.496C172.531 24.32 172.927 24.232 173.367 24.232ZM176.965 27.64C176.965 26.952 177.093 26.348 177.349 25.828C177.613 25.308 177.969 24.908 178.417 24.628C178.865 24.348 179.365 24.208 179.917 24.208C180.357 24.208 180.757 24.3 181.117 24.484C181.485 24.668 181.773 24.916 181.981 25.228V22.12H184.033V31H181.981V30.04C181.789 30.36 181.513 30.616 181.153 30.808C180.801 31 180.389 31.096 179.917 31.096C179.365 31.096 178.865 30.956 178.417 30.676C177.969 30.388 177.613 29.984 177.349 29.464C177.093 28.936 176.965 28.328 176.965 27.64ZM181.981 27.652C181.981 27.14 181.837 26.736 181.549 26.44C181.269 26.144 180.925 25.996 180.517 25.996C180.109 25.996 179.761 26.144 179.473 26.44C179.193 26.728 179.053 27.128 179.053 27.64C179.053 28.152 179.193 28.56 179.473 28.864C179.761 29.16 180.109 29.308 180.517 29.308C180.925 29.308 181.269 29.16 181.549 28.864C181.837 28.568 181.981 28.164 181.981 27.652ZM194.48 25.288C194.48 25.776 194.368 26.224 194.144 26.632C193.92 27.032 193.576 27.356 193.112 27.604C192.648 27.852 192.072 27.976 191.384 27.976H190.112V31H188.06V22.576H191.384C192.056 22.576 192.624 22.692 193.088 22.924C193.552 23.156 193.9 23.476 194.132 23.884C194.364 24.292 194.48 24.76 194.48 25.288ZM191.228 26.344C191.62 26.344 191.912 26.252 192.104 26.068C192.296 25.884 192.392 25.624 192.392 25.288C192.392 24.952 192.296 24.692 192.104 24.508C191.912 24.324 191.62 24.232 191.228 24.232H190.112V26.344H191.228ZM195.141 27.64C195.141 26.952 195.269 26.348 195.525 25.828C195.789 25.308 196.145 24.908 196.593 24.628C197.041 24.348 197.541 24.208 198.093 24.208C198.565 24.208 198.977 24.304 199.329 24.496C199.689 24.688 199.965 24.94 200.157 25.252V24.304H202.209V31H200.157V30.052C199.957 30.364 199.677 30.616 199.317 30.808C198.965 31 198.553 31.096 198.081 31.096C197.537 31.096 197.041 30.956 196.593 30.676C196.145 30.388 195.789 29.984 195.525 29.464C195.269 28.936 195.141 28.328 195.141 27.64ZM200.157 27.652C200.157 27.14 200.013 26.736 199.725 26.44C199.445 26.144 199.101 25.996 198.693 25.996C198.285 25.996 197.937 26.144 197.649 26.44C197.369 26.728 197.229 27.128 197.229 27.64C197.229 28.152 197.369 28.56 197.649 28.864C197.937 29.16 198.285 29.308 198.693 29.308C199.101 29.308 199.445 29.16 199.725 28.864C200.013 28.568 200.157 28.164 200.157 27.652ZM213.305 24.304L211.493 31H209.225L208.169 26.656L207.077 31H204.821L202.997 24.304H205.049L205.997 29.092L207.125 24.304H209.297L210.437 29.068L211.373 24.304H213.305Z" fill="#1E0B25"/>
<line x1="94" y1="37.6406" x2="245" y2="37.6406" stroke="#F22229"/>
<path d="M83.516 47.6736C83.516 46.8576 83.7 46.1256 84.068 45.4776C84.436 44.8216 84.936 44.3096 85.568 43.9416C86.208 43.5736 86.916 43.3896 87.692 43.3896C88.604 43.3896 89.4 43.6096 90.08 44.0496C90.76 44.4896 91.256 45.1136 91.568 45.9216H90.26C90.028 45.4176 89.692 45.0296 89.252 44.7576C88.82 44.4856 88.3 44.3496 87.692 44.3496C87.108 44.3496 86.584 44.4856 86.12 44.7576C85.656 45.0296 85.292 45.4176 85.028 45.9216C84.764 46.4176 84.632 47.0016 84.632 47.6736C84.632 48.3376 84.764 48.9216 85.028 49.4256C85.292 49.9216 85.656 50.3056 86.12 50.5776C86.584 50.8496 87.108 50.9856 87.692 50.9856C88.3 50.9856 88.82 50.8536 89.252 50.5896C89.692 50.3176 90.028 49.9296 90.26 49.4256H91.568C91.256 50.2256 90.76 50.8456 90.08 51.2856C89.4 51.7176 88.604 51.9336 87.692 51.9336C86.916 51.9336 86.208 51.7536 85.568 51.3936C84.936 51.0256 84.436 50.5176 84.068 49.8696C83.7 49.2216 83.516 48.4896 83.516 47.6736ZM96.0615 51.9696C95.4455 51.9696 94.8855 51.8296 94.3815 51.5496C93.8855 51.2696 93.4935 50.8736 93.2055 50.3616C92.9255 49.8416 92.7855 49.2416 92.7855 48.5616C92.7855 47.8896 92.9295 47.2976 93.2175 46.7856C93.5135 46.2656 93.9135 45.8696 94.4175 45.5976C94.9215 45.3176 95.4855 45.1776 96.1095 45.1776C96.7335 45.1776 97.2975 45.3176 97.8015 45.5976C98.3055 45.8696 98.7015 46.2616 98.9895 46.7736C99.2855 47.2856 99.4335 47.8816 99.4335 48.5616C99.4335 49.2416 99.2815 49.8416 98.9775 50.3616C98.6815 50.8736 98.2775 51.2696 97.7655 51.5496C97.2535 51.8296 96.6855 51.9696 96.0615 51.9696ZM96.0615 51.0096C96.4535 51.0096 96.8215 50.9176 97.1655 50.7336C97.5095 50.5496 97.7855 50.2736 97.9935 49.9056C98.2095 49.5376 98.3175 49.0896 98.3175 48.5616C98.3175 48.0336 98.2135 47.5856 98.0055 47.2176C97.7975 46.8496 97.5255 46.5776 97.1895 46.4016C96.8535 46.2176 96.4895 46.1256 96.0975 46.1256C95.6975 46.1256 95.3295 46.2176 94.9935 46.4016C94.6655 46.5776 94.4015 46.8496 94.2015 47.2176C94.0015 47.5856 93.9015 48.0336 93.9015 48.5616C93.9015 49.0976 93.9975 49.5496 94.1895 49.9176C94.3895 50.2856 94.6535 50.5616 94.9815 50.7456C95.3095 50.9216 95.6695 51.0096 96.0615 51.0096ZM104.073 45.1656C104.873 45.1656 105.521 45.4096 106.017 45.8976C106.513 46.3776 106.761 47.0736 106.761 47.9856V51.8616H105.681V48.1416C105.681 47.4856 105.517 46.9856 105.189 46.6416C104.861 46.2896 104.413 46.1136 103.845 46.1136C103.269 46.1136 102.809 46.2936 102.465 46.6536C102.129 47.0136 101.961 47.5376 101.961 48.2256V51.8616H100.869V45.2856H101.961V46.2216C102.177 45.8856 102.469 45.6256 102.837 45.4416C103.213 45.2576 103.625 45.1656 104.073 45.1656ZM111.749 45.1656C112.549 45.1656 113.197 45.4096 113.693 45.8976C114.189 46.3776 114.437 47.0736 114.437 47.9856V51.8616H113.357V48.1416C113.357 47.4856 113.193 46.9856 112.865 46.6416C112.537 46.2896 112.089 46.1136 111.521 46.1136C110.945 46.1136 110.485 46.2936 110.141 46.6536C109.805 47.0136 109.637 47.5376 109.637 48.2256V51.8616H108.545V45.2856H109.637V46.2216C109.853 45.8856 110.145 45.6256 110.513 45.4416C110.889 45.2576 111.301 45.1656 111.749 45.1656ZM122.221 48.3216C122.221 48.5296 122.209 48.7496 122.185 48.9816H116.929C116.969 49.6296 117.189 50.1376 117.589 50.5056C117.997 50.8656 118.489 51.0456 119.065 51.0456C119.537 51.0456 119.929 50.9376 120.241 50.7216C120.561 50.4976 120.785 50.2016 120.913 49.8336H122.089C121.913 50.4656 121.561 50.9816 121.033 51.3816C120.505 51.7736 119.849 51.9696 119.065 51.9696C118.441 51.9696 117.881 51.8296 117.385 51.5496C116.897 51.2696 116.513 50.8736 116.233 50.3616C115.953 49.8416 115.813 49.2416 115.813 48.5616C115.813 47.8816 115.949 47.2856 116.221 46.7736C116.493 46.2616 116.873 45.8696 117.361 45.5976C117.857 45.3176 118.425 45.1776 119.065 45.1776C119.689 45.1776 120.241 45.3136 120.721 45.5856C121.201 45.8576 121.569 46.2336 121.825 46.7136C122.089 47.1856 122.221 47.7216 122.221 48.3216ZM121.093 48.0936C121.093 47.6776 121.001 47.3216 120.817 47.0256C120.633 46.7216 120.381 46.4936 120.061 46.3416C119.749 46.1816 119.401 46.1016 119.017 46.1016C118.465 46.1016 117.993 46.2776 117.601 46.6296C117.217 46.9816 116.997 47.4696 116.941 48.0936H121.093ZM123.254 48.5616C123.254 47.8816 123.39 47.2896 123.662 46.7856C123.934 46.2736 124.31 45.8776 124.79 45.5976C125.278 45.3176 125.834 45.1776 126.458 45.1776C127.266 45.1776 127.93 45.3736 128.45 45.7656C128.978 46.1576 129.326 46.7016 129.494 47.3976H128.318C128.206 46.9976 127.986 46.6816 127.658 46.4496C127.338 46.2176 126.938 46.1016 126.458 46.1016C125.834 46.1016 125.33 46.3176 124.946 46.7496C124.562 47.1736 124.37 47.7776 124.37 48.5616C124.37 49.3536 124.562 49.9656 124.946 50.3976C125.33 50.8296 125.834 51.0456 126.458 51.0456C126.938 51.0456 127.338 50.9336 127.658 50.7096C127.978 50.4856 128.198 50.1656 128.318 49.7496H129.494C129.318 50.4216 128.966 50.9616 128.438 51.3696C127.91 51.7696 127.25 51.9696 126.458 51.9696C125.834 51.9696 125.278 51.8296 124.79 51.5496C124.31 51.2696 123.934 50.8736 123.662 50.3616C123.39 49.8496 123.254 49.2496 123.254 48.5616ZM132.283 46.1856V50.0616C132.283 50.3816 132.351 50.6096 132.487 50.7456C132.623 50.8736 132.859 50.9376 133.195 50.9376H133.999V51.8616H133.015C132.407 51.8616 131.951 51.7216 131.647 51.4416C131.343 51.1616 131.191 50.7016 131.191 50.0616V46.1856H130.339V45.2856H131.191V43.6296H132.283V45.2856H133.999V46.1856H132.283ZM135.886 44.2176C135.678 44.2176 135.502 44.1456 135.358 44.0016C135.214 43.8576 135.142 43.6816 135.142 43.4736C135.142 43.2656 135.214 43.0896 135.358 42.9456C135.502 42.8016 135.678 42.7296 135.886 42.7296C136.086 42.7296 136.254 42.8016 136.39 42.9456C136.534 43.0896 136.606 43.2656 136.606 43.4736C136.606 43.6816 136.534 43.8576 136.39 44.0016C136.254 44.1456 136.086 44.2176 135.886 44.2176ZM136.414 45.2856V51.8616H135.322V45.2856H136.414ZM141.48 45.1656C142.28 45.1656 142.928 45.4096 143.424 45.8976C143.92 46.3776 144.168 47.0736 144.168 47.9856V51.8616H143.088V48.1416C143.088 47.4856 142.924 46.9856 142.596 46.6416C142.268 46.2896 141.82 46.1136 141.252 46.1136C140.676 46.1136 140.216 46.2936 139.872 46.6536C139.536 47.0136 139.368 47.5376 139.368 48.2256V51.8616H138.276V45.2856H139.368V46.2216C139.584 45.8856 139.876 45.6256 140.244 45.4416C140.62 45.2576 141.032 45.1656 141.48 45.1656ZM148.663 45.1776C149.231 45.1776 149.727 45.3016 150.151 45.5496C150.583 45.7976 150.903 46.1096 151.111 46.4856V45.2856H152.215V52.0056C152.215 52.6056 152.087 53.1376 151.831 53.6016C151.575 54.0736 151.207 54.4416 150.727 54.7056C150.255 54.9696 149.703 55.1016 149.071 55.1016C148.207 55.1016 147.487 54.8976 146.911 54.4896C146.335 54.0816 145.995 53.5256 145.891 52.8216H146.971C147.091 53.2216 147.339 53.5416 147.715 53.7816C148.091 54.0296 148.543 54.1536 149.071 54.1536C149.671 54.1536 150.159 53.9656 150.535 53.5896C150.919 53.2136 151.111 52.6856 151.111 52.0056V50.6256C150.895 51.0096 150.575 51.3296 150.151 51.5856C149.727 51.8416 149.231 51.9696 148.663 51.9696C148.079 51.9696 147.547 51.8256 147.067 51.5376C146.595 51.2496 146.223 50.8456 145.951 50.3256C145.679 49.8056 145.543 49.2136 145.543 48.5496C145.543 47.8776 145.679 47.2896 145.951 46.7856C146.223 46.2736 146.595 45.8776 147.067 45.5976C147.547 45.3176 148.079 45.1776 148.663 45.1776ZM151.111 48.5616C151.111 48.0656 151.011 47.6336 150.811 47.2656C150.611 46.8976 150.339 46.6176 149.995 46.4256C149.659 46.2256 149.287 46.1256 148.879 46.1256C148.471 46.1256 148.099 46.2216 147.763 46.4136C147.427 46.6056 147.159 46.8856 146.959 47.2536C146.759 47.6216 146.659 48.0536 146.659 48.5496C146.659 49.0536 146.759 49.4936 146.959 49.8696C147.159 50.2376 147.427 50.5216 147.763 50.7216C148.099 50.9136 148.471 51.0096 148.879 51.0096C149.287 51.0096 149.659 50.9136 149.995 50.7216C150.339 50.5216 150.611 50.2376 150.811 49.8696C151.011 49.4936 151.111 49.0576 151.111 48.5616ZM158.352 46.4976C158.568 46.1216 158.888 45.8096 159.312 45.5616C159.744 45.3056 160.244 45.1776 160.812 45.1776C161.396 45.1776 161.924 45.3176 162.396 45.5976C162.876 45.8776 163.252 46.2736 163.524 46.7856C163.796 47.2896 163.932 47.8776 163.932 48.5496C163.932 49.2136 163.796 49.8056 163.524 50.3256C163.252 50.8456 162.876 51.2496 162.396 51.5376C161.924 51.8256 161.396 51.9696 160.812 51.9696C160.252 51.9696 159.756 51.8456 159.324 51.5976C158.9 51.3416 158.576 51.0256 158.352 50.6496V54.9816H157.26V45.2856H158.352V46.4976ZM162.816 48.5496C162.816 48.0536 162.716 47.6216 162.516 47.2536C162.316 46.8856 162.044 46.6056 161.7 46.4136C161.364 46.2216 160.992 46.1256 160.584 46.1256C160.184 46.1256 159.812 46.2256 159.468 46.4256C159.132 46.6176 158.86 46.9016 158.652 47.2776C158.452 47.6456 158.352 48.0736 158.352 48.5616C158.352 49.0576 158.452 49.4936 158.652 49.8696C158.86 50.2376 159.132 50.5216 159.468 50.7216C159.812 50.9136 160.184 51.0096 160.584 51.0096C160.992 51.0096 161.364 50.9136 161.7 50.7216C162.044 50.5216 162.316 50.2376 162.516 49.8696C162.716 49.4936 162.816 49.0536 162.816 48.5496ZM171.369 48.3216C171.369 48.5296 171.357 48.7496 171.333 48.9816H166.077C166.117 49.6296 166.337 50.1376 166.737 50.5056C167.145 50.8656 167.637 51.0456 168.213 51.0456C168.685 51.0456 169.077 50.9376 169.389 50.7216C169.709 50.4976 169.933 50.2016 170.061 49.8336H171.237C171.061 50.4656 170.709 50.9816 170.181 51.3816C169.653 51.7736 168.997 51.9696 168.213 51.9696C167.589 51.9696 167.029 51.8296 166.533 51.5496C166.045 51.2696 165.661 50.8736 165.381 50.3616C165.101 49.8416 164.961 49.2416 164.961 48.5616C164.961 47.8816 165.097 47.2856 165.369 46.7736C165.641 46.2616 166.021 45.8696 166.509 45.5976C167.005 45.3176 167.573 45.1776 168.213 45.1776C168.837 45.1776 169.389 45.3136 169.869 45.5856C170.349 45.8576 170.717 46.2336 170.973 46.7136C171.237 47.1856 171.369 47.7216 171.369 48.3216ZM170.241 48.0936C170.241 47.6776 170.149 47.3216 169.965 47.0256C169.781 46.7216 169.529 46.4936 169.209 46.3416C168.897 46.1816 168.549 46.1016 168.165 46.1016C167.613 46.1016 167.141 46.2776 166.749 46.6296C166.365 46.9816 166.145 47.4696 166.089 48.0936H170.241ZM175.679 51.9696C175.063 51.9696 174.503 51.8296 173.999 51.5496C173.503 51.2696 173.111 50.8736 172.823 50.3616C172.543 49.8416 172.403 49.2416 172.403 48.5616C172.403 47.8896 172.547 47.2976 172.835 46.7856C173.131 46.2656 173.531 45.8696 174.035 45.5976C174.539 45.3176 175.103 45.1776 175.727 45.1776C176.351 45.1776 176.915 45.3176 177.419 45.5976C177.923 45.8696 178.319 46.2616 178.607 46.7736C178.903 47.2856 179.051 47.8816 179.051 48.5616C179.051 49.2416 178.899 49.8416 178.595 50.3616C178.299 50.8736 177.895 51.2696 177.383 51.5496C176.871 51.8296 176.303 51.9696 175.679 51.9696ZM175.679 51.0096C176.071 51.0096 176.439 50.9176 176.783 50.7336C177.127 50.5496 177.403 50.2736 177.611 49.9056C177.827 49.5376 177.935 49.0896 177.935 48.5616C177.935 48.0336 177.831 47.5856 177.623 47.2176C177.415 46.8496 177.143 46.5776 176.807 46.4016C176.471 46.2176 176.107 46.1256 175.715 46.1256C175.315 46.1256 174.947 46.2176 174.611 46.4016C174.283 46.5776 174.019 46.8496 173.819 47.2176C173.619 47.5856 173.519 48.0336 173.519 48.5616C173.519 49.0976 173.615 49.5496 173.807 49.9176C174.007 50.2856 174.271 50.5616 174.599 50.7456C174.927 50.9216 175.287 51.0096 175.679 51.0096ZM181.579 46.4976C181.795 46.1216 182.115 45.8096 182.539 45.5616C182.971 45.3056 183.471 45.1776 184.039 45.1776C184.623 45.1776 185.151 45.3176 185.622 45.5976C186.102 45.8776 186.479 46.2736 186.751 46.7856C187.023 47.2896 187.159 47.8776 187.159 48.5496C187.159 49.2136 187.023 49.8056 186.751 50.3256C186.479 50.8456 186.102 51.2496 185.622 51.5376C185.151 51.8256 184.623 51.9696 184.039 51.9696C183.479 51.9696 182.983 51.8456 182.551 51.5976C182.127 51.3416 181.803 51.0256 181.579 50.6496V54.9816H180.487V45.2856H181.579V46.4976ZM186.043 48.5496C186.043 48.0536 185.943 47.6216 185.743 47.2536C185.543 46.8856 185.271 46.6056 184.927 46.4136C184.591 46.2216 184.219 46.1256 183.811 46.1256C183.411 46.1256 183.039 46.2256 182.695 46.4256C182.359 46.6176 182.087 46.9016 181.879 47.2776C181.679 47.6456 181.579 48.0736 181.579 48.5616C181.579 49.0576 181.679 49.4936 181.879 49.8696C182.087 50.2376 182.359 50.5216 182.695 50.7216C183.039 50.9136 183.411 51.0096 183.811 51.0096C184.219 51.0096 184.591 50.9136 184.927 50.7216C185.271 50.5216 185.543 50.2376 185.743 49.8696C185.943 49.4936 186.043 49.0536 186.043 48.5496ZM189.688 42.9816V51.8616H188.596V42.9816H189.688ZM197.549 48.3216C197.549 48.5296 197.537 48.7496 197.513 48.9816H192.257C192.297 49.6296 192.517 50.1376 192.917 50.5056C193.325 50.8656 193.817 51.0456 194.393 51.0456C194.865 51.0456 195.257 50.9376 195.569 50.7216C195.889 50.4976 196.113 50.2016 196.241 49.8336H197.417C197.241 50.4656 196.889 50.9816 196.361 51.3816C195.833 51.7736 195.177 51.9696 194.393 51.9696C193.769 51.9696 193.209 51.8296 192.713 51.5496C192.225 51.2696 191.841 50.8736 191.561 50.3616C191.281 49.8416 191.141 49.2416 191.141 48.5616C191.141 47.8816 191.277 47.2856 191.549 46.7736C191.821 46.2616 192.201 45.8696 192.689 45.5976C193.185 45.3176 193.753 45.1776 194.393 45.1776C195.017 45.1776 195.569 45.3136 196.049 45.5856C196.529 45.8576 196.897 46.2336 197.153 46.7136C197.417 47.1856 197.549 47.7216 197.549 48.3216ZM196.421 48.0936C196.421 47.6776 196.329 47.3216 196.145 47.0256C195.961 46.7216 195.709 46.4936 195.389 46.3416C195.077 46.1816 194.729 46.1016 194.345 46.1016C193.793 46.1016 193.321 46.2776 192.929 46.6296C192.545 46.9816 192.325 47.4696 192.269 48.0936H196.421ZM210.95 45.2856L208.898 51.8616H207.77L206.186 46.6416L204.602 51.8616H203.474L201.41 45.2856H202.526L204.038 50.8056L205.67 45.2856H206.786L208.382 50.8176L209.87 45.2856H210.95ZM212.597 44.2176C212.389 44.2176 212.213 44.1456 212.069 44.0016C211.925 43.8576 211.853 43.6816 211.853 43.4736C211.853 43.2656 211.925 43.0896 212.069 42.9456C212.213 42.8016 212.389 42.7296 212.597 42.7296C212.797 42.7296 212.965 42.8016 213.101 42.9456C213.245 43.0896 213.317 43.2656 213.317 43.4736C213.317 43.6816 213.245 43.8576 213.101 44.0016C212.965 44.1456 212.797 44.2176 212.597 44.2176ZM213.125 45.2856V51.8616H212.033V45.2856H213.125ZM216.319 46.1856V50.0616C216.319 50.3816 216.387 50.6096 216.523 50.7456C216.659 50.8736 216.895 50.9376 217.23 50.9376H218.035V51.8616H217.051C216.443 51.8616 215.987 51.7216 215.683 51.4416C215.379 51.1616 215.227 50.7016 215.227 50.0616V46.1856H214.375V45.2856H215.227V43.6296H216.319V45.2856H218.035V46.1856H216.319ZM222.622 45.1656C223.118 45.1656 223.566 45.2736 223.966 45.4896C224.366 45.6976 224.678 46.0136 224.902 46.4376C225.134 46.8616 225.25 47.3776 225.25 47.9856V51.8616H224.17V48.1416C224.17 47.4856 224.006 46.9856 223.678 46.6416C223.35 46.2896 222.902 46.1136 222.334 46.1136C221.758 46.1136 221.298 46.2936 220.954 46.6536C220.618 47.0136 220.45 47.5376 220.45 48.2256V51.8616H219.358V42.9816H220.45V46.2216C220.666 45.8856 220.962 45.6256 221.338 45.4416C221.722 45.2576 222.15 45.1656 222.622 45.1656ZM231.325 46.4976C231.541 46.1216 231.861 45.8096 232.285 45.5616C232.717 45.3056 233.217 45.1776 233.785 45.1776C234.369 45.1776 234.897 45.3176 235.369 45.5976C235.849 45.8776 236.225 46.2736 236.497 46.7856C236.769 47.2896 236.905 47.8776 236.905 48.5496C236.905 49.2136 236.769 49.8056 236.497 50.3256C236.225 50.8456 235.849 51.2496 235.369 51.5376C234.897 51.8256 234.369 51.9696 233.785 51.9696C233.225 51.9696 232.729 51.8456 232.297 51.5976C231.873 51.3416 231.549 51.0256 231.325 50.6496V54.9816H230.233V45.2856H231.325V46.4976ZM235.789 48.5496C235.789 48.0536 235.689 47.6216 235.489 47.2536C235.289 46.8856 235.017 46.6056 234.673 46.4136C234.337 46.2216 233.965 46.1256 233.557 46.1256C233.157 46.1256 232.785 46.2256 232.441 46.4256C232.105 46.6176 231.833 46.9016 231.625 47.2776C231.425 47.6456 231.325 48.0736 231.325 48.5616C231.325 49.0576 231.425 49.4936 231.625 49.8696C231.833 50.2376 232.105 50.5216 232.441 50.7216C232.785 50.9136 233.157 51.0096 233.557 51.0096C233.965 51.0096 234.337 50.9136 234.673 50.7216C235.017 50.5216 235.289 50.2376 235.489 49.8696C235.689 49.4936 235.789 49.0536 235.789 48.5496ZM244.342 48.3216C244.342 48.5296 244.33 48.7496 244.306 48.9816H239.05C239.09 49.6296 239.31 50.1376 239.71 50.5056C240.118 50.8656 240.61 51.0456 241.186 51.0456C241.658 51.0456 242.05 50.9376 242.362 50.7216C242.682 50.4976 242.906 50.2016 243.034 49.8336H244.21C244.034 50.4656 243.682 50.9816 243.154 51.3816C242.626 51.7736 241.97 51.9696 241.186 51.9696C240.562 51.9696 240.002 51.8296 239.506 51.5496C239.018 51.2696 238.634 50.8736 238.354 50.3616C238.074 49.8416 237.934 49.2416 237.934 48.5616C237.934 47.8816 238.07 47.2856 238.342 46.7736C238.614 46.2616 238.994 45.8696 239.482 45.5976C239.978 45.3176 240.546 45.1776 241.186 45.1776C241.81 45.1776 242.362 45.3136 242.842 45.5856C243.322 45.8576 243.69 46.2336 243.946 46.7136C244.21 47.1856 244.342 47.7216 244.342 48.3216ZM243.214 48.0936C243.214 47.6776 243.122 47.3216 242.938 47.0256C242.754 46.7216 242.502 46.4936 242.182 46.3416C241.87 46.1816 241.522 46.1016 241.138 46.1016C240.586 46.1016 240.114 46.2776 239.722 46.6296C239.338 46.9816 239.118 47.4696 239.062 48.0936H243.214ZM247.115 46.1856V50.0616C247.115 50.3816 247.183 50.6096 247.319 50.7456C247.455 50.8736 247.691 50.9376 248.027 50.9376H248.831V51.8616H247.847C247.239 51.8616 246.783 51.7216 246.479 51.4416C246.175 51.1616 246.023 50.7016 246.023 50.0616V46.1856H245.171V45.2856H246.023V43.6296H247.115V45.2856H248.831V46.1856H247.115ZM252.482 51.9696C251.978 51.9696 251.526 51.8856 251.126 51.7176C250.726 51.5416 250.41 51.3016 250.178 50.9976C249.946 50.6856 249.818 50.3296 249.794 49.9296H250.922C250.954 50.2576 251.106 50.5256 251.378 50.7336C251.658 50.9416 252.022 51.0456 252.47 51.0456C252.886 51.0456 253.214 50.9536 253.454 50.7696C253.694 50.5856 253.814 50.3536 253.814 50.0736C253.814 49.7856 253.686 49.5736 253.43 49.4376C253.174 49.2936 252.778 49.1536 252.242 49.0176C251.754 48.8896 251.354 48.7616 251.042 48.6336C250.738 48.4976 250.474 48.3016 250.25 48.0456C250.034 47.7816 249.926 47.4376 249.926 47.0136C249.926 46.6776 250.026 46.3696 250.226 46.0896C250.426 45.8096 250.71 45.5896 251.078 45.4296C251.446 45.2616 251.866 45.1776 252.338 45.1776C253.066 45.1776 253.654 45.3616 254.102 45.7296C254.55 46.0976 254.79 46.6016 254.822 47.2416H253.73C253.706 46.8976 253.566 46.6216 253.31 46.4136C253.062 46.2056 252.726 46.1016 252.302 46.1016C251.91 46.1016 251.598 46.1856 251.366 46.3536C251.134 46.5216 251.018 46.7416 251.018 47.0136C251.018 47.2296 251.086 47.4096 251.222 47.5536C251.366 47.6896 251.542 47.8016 251.75 47.8896C251.966 47.9696 252.262 48.0616 252.638 48.1656C253.11 48.2936 253.494 48.4216 253.79 48.5496C254.086 48.6696 254.338 48.8536 254.546 49.1016C254.762 49.3496 254.874 49.6736 254.882 50.0736C254.882 50.4336 254.782 50.7576 254.582 51.0456C254.382 51.3336 254.098 51.5616 253.73 51.7296C253.37 51.8896 252.954 51.9696 252.482 51.9696Z" fill="#1E0B25"/>
<path d="M25.4998 5.7C18.2998 8.6 11.2998 14.6 8.09981 20.7C6.59981 23.7 6.59981 23.7 10.7998 25.9C14.4998 27.8 14.5998 27.8 19.9998 25.9C25.1998 24.1 34.9998 23.3 36.2998 24.7C37.4998 25.9 34.7998 28 32.0998 28C29.1998 28 26.9998 29.6 26.9998 31.7C26.9998 33.1 34.9998 39.3 35.7998 38.5C36.0998 38.2 35.3998 37.1 34.1998 36C31.7998 33.7 31.2998 30.4 33.2998 29.7C33.8998 29.5 36.2998 30.1 38.4998 31.1C40.6998 32.1 43.4998 33 44.5998 33C45.7998 33 51.4998 34.8 57.3998 37C63.1998 39.2 68.4998 41 69.1998 41C70.8998 41 69.4998 29.3 67.0998 23.7C64.1998 17 57.4998 10.2 50.4998 6.9C45.4998 4.5 43.1998 4 36.9998 4.1C32.4998 4.1 27.8998 4.8 25.4998 5.7Z" fill="#EB1C24"/>
<path d="M4.3 39.3C5.4 50.5 12.2 60.4 22.4 65.8C26.9 68.2 28.6 68.5 37 68.5C45.4 68.5 47.1 68.2 51.6 65.8C56.6 63.2 66 53.9 66 51.6C65.9 50.2 50.5 41.5 44.4 39.4C41.6 38.5 39.4 38.2 38.4 38.8C37.2 39.5 37.8 40 41.3 40.9C46.3 42.4 52 45.5 52 46.9C52 48.6 47.7 48.9 43.6 47.5C41.3 46.7 37.5 46 35 46C31.7 46 27.4 44.6 18.5 40.4C11.9 37.4 5.9 34.6 5.1 34.3C3.9 33.8 3.8 34.7 4.3 39.3Z" fill="#EB1C24"/>
</svg>
