<svg width="26" height="26" viewBox="0 0 26 26" fill="none" xmlns="http://www.w3.org/2000/svg">
<path d="M10.2393 14.8464C10.2393 15.0875 10.1678 15.3231 10.0339 15.5235C9.89995 15.724 9.70961 15.8802 9.48691 15.9724C9.26421 16.0647 9.01916 16.0888 8.78275 16.0418C8.54633 15.9947 8.32917 15.8787 8.15873 15.7082C7.98828 15.5378 7.87221 15.3206 7.82518 15.0842C7.77816 14.8478 7.80229 14.6027 7.89454 14.38C7.98678 14.1573 8.14299 13.967 8.34341 13.8331C8.54384 13.6992 8.77947 13.6277 9.02052 13.6277C9.34375 13.6277 9.65374 13.7561 9.8823 13.9847C10.1109 14.2132 10.2393 14.5232 10.2393 14.8464ZM16.333 13.6277C16.092 13.6277 15.8563 13.6992 15.6559 13.8331C15.4555 13.967 15.2993 14.1573 15.207 14.38C15.1148 14.6027 15.0907 14.8478 15.1377 15.0842C15.1847 15.3206 15.3008 15.5378 15.4712 15.7082C15.6417 15.8787 15.8588 15.9947 16.0953 16.0418C16.3317 16.0888 16.5767 16.0647 16.7994 15.9724C17.0221 15.8802 17.2125 15.724 17.3464 15.5235C17.4803 15.3231 17.5518 15.0875 17.5518 14.8464C17.5518 14.5232 17.4234 14.2132 17.1948 13.9847C16.9662 13.7561 16.6562 13.6277 16.333 13.6277ZM23.3131 15.2485C23.0988 15.3467 22.8659 15.3978 22.6302 15.3985C22.2586 15.3981 21.8991 15.2671 21.6143 15.0284V19.3152C21.613 20.3923 21.1846 21.4248 20.423 22.1864C19.6614 22.948 18.6288 23.3765 17.5518 23.3777H7.80177C6.7247 23.3765 5.69211 22.948 4.93051 22.1864C4.16891 21.4248 3.7405 20.3923 3.73927 19.3152V15.0284C3.45448 15.2671 3.09489 15.3981 2.72334 15.3985C2.4876 15.3979 2.25474 15.3467 2.04043 15.2485C1.70647 15.1017 1.43262 14.8453 1.26419 14.5218C1.09576 14.1982 1.04284 13.8268 1.11418 13.469L2.78163 4.57562C2.82245 4.35783 2.90739 4.15069 3.03121 3.96694C3.15503 3.78318 3.31513 3.62669 3.50166 3.50708C3.68818 3.38747 3.8972 3.30727 4.11587 3.27142C4.33453 3.23556 4.55821 3.2448 4.77317 3.29858L10.3393 4.69019H15.0142L20.5805 3.29858C20.7954 3.24483 21.0191 3.23561 21.2377 3.27148C21.4563 3.30734 21.6653 3.38753 21.8518 3.50713C22.0383 3.62673 22.1984 3.7832 22.3222 3.96693C22.446 4.15066 22.531 4.35776 22.5718 4.57552L24.2394 13.469C24.3107 13.8268 24.2578 14.1982 24.0893 14.5218C23.9209 14.8453 23.6471 15.1017 23.3131 15.2485V15.2485ZM8.82552 5.98683L4.37891 4.87503L2.71145 13.7685L8.82552 5.98683ZM19.9893 19.3152V13.0224L14.7193 6.31519H10.6343L5.36427 13.0224V19.3152C5.36499 19.9614 5.62203 20.581 6.07899 21.038C6.53596 21.4949 7.15552 21.752 7.80177 21.7527H11.8643V20.4643L10.4772 19.0772C10.3248 18.9248 10.2392 18.7182 10.2392 18.5027C10.2392 18.2872 10.3248 18.0805 10.4772 17.9281C10.6296 17.7758 10.8363 17.6902 11.0518 17.6902C11.2673 17.6902 11.4739 17.7758 11.6263 17.9281L12.6768 18.9787L13.7272 17.9281C13.8027 17.8527 13.8922 17.7928 13.9908 17.752C14.0894 17.7112 14.1951 17.6902 14.3018 17.6902C14.4085 17.6902 14.5141 17.7112 14.6127 17.752C14.7113 17.7928 14.8009 17.8527 14.8763 17.9281C14.9518 18.0036 15.0116 18.0932 15.0524 18.1917C15.0933 18.2903 15.1143 18.396 15.1143 18.5027C15.1143 18.6094 15.0933 18.715 15.0524 18.8136C15.0116 18.9122 14.9518 19.0018 14.8763 19.0772L13.4893 20.4643V21.7527H17.5518C18.198 21.752 18.8176 21.4949 19.2745 21.038C19.7315 20.581 19.9885 19.9614 19.9893 19.3152V19.3152ZM22.6421 13.7684L20.9746 4.87503L16.528 5.98683L22.6421 13.7684Z" fill="black"/>
</svg>
