<svg width="1" height="1" viewBox="0 0 1 1" fill="none" xmlns="http://www.w3.org/2000/svg">
<path fill-rule="evenodd" clip-rule="evenodd" d="M0.494226 0.0439389C0.358231 0.0291613 0.20449 -0.0470742 0.10223 0.0439389C-0.00267361 0.137305 -0.00158895 0.296046 0.000550933 0.436598C0.00264758 0.574309 0.109356 0.689642 0.206397 0.787213C0.303569 0.884915 0.356549 0.932007 0.494226 0.932968C0.633155 0.933938 0.780845 0.920509 0.879783 0.822807C0.979218 0.724614 1.01081 0.575765 0.996878 0.436598C0.984196 0.30993 0.975538 0.127641 0.879783 0.0439389C0.791392 -0.0333263 0.610857 0.0566122 0.494226 0.0439389Z" fill="#C4C4C4"/>
<path fill-rule="evenodd" clip-rule="evenodd" d="M0.494226 0.0439389C0.358231 0.0291613 0.20449 -0.0470742 0.10223 0.0439389C-0.00267361 0.137305 -0.00158895 0.296046 0.000550933 0.436598C0.00264758 0.574309 0.109356 0.689642 0.206397 0.787213C0.303569 0.884915 0.356549 0.932007 0.494226 0.932968C0.633155 0.933938 0.780845 0.920509 0.879783 0.822807C0.979218 0.724614 1.01081 0.575765 0.996878 0.436598C0.984196 0.30993 0.975538 0.127641 0.879783 0.0439389C0.791392 -0.0333263 0.610857 0.0566122 0.494226 0.0439389Z" fill="#C4C4C4"/>
</svg>
